<svg width="1035" height="1035" viewBox="0 0 1035 1035" fill="none" xmlns="http://www.w3.org/2000/svg">
<path d="M897 222.751C897 257.96 868.532 286.502 833.415 286.502C798.298 286.502 769.83 257.96 769.83 222.751C769.83 187.542 798.298 159 833.415 159C868.532 159 897 187.542 897 222.751Z" fill="#FDFDFD"/>
<path d="M706.242 517.599C706.242 412.601 621.346 327.484 516.622 327.484C411.898 327.484 327.003 412.601 327.003 517.599C327.003 622.596 411.898 707.713 516.622 707.713V817C351.698 817 218 682.953 218 517.599C218 352.244 351.698 218.197 516.622 218.197C681.547 218.197 815.245 352.244 815.245 517.599C815.245 682.953 681.547 817 516.622 817V707.713C621.346 707.713 706.242 622.596 706.242 517.599Z" fill="#FDFDFD"/>
</svg>
