<svg width="48" height="48" viewBox="0 0 48 48" fill="none" xmlns="http://www.w3.org/2000/svg">
<path d="M37 15V18H31V15C31 11.14 27.86 8 24 8C20.14 8 17 11.14 17 15V18H12C11.66 18 11.33 18.02 11 18.06V15C11 7.83 16.83 2 24 2C31.17 2 37 7.83 37 15ZM42 39C42 42.3 39.3 45 36 45H6V27C6 23.7 8.7 21 12 21H42V39ZM24 30C22.343 30 21 31.343 21 33C21 34.657 22.343 36 24 36C25.657 36 27 34.657 27 33C27 31.343 25.657 30 24 30ZM15 30C13.343 30 12 31.343 12 33C12 34.657 13.343 36 15 36C16.657 36 18 34.657 18 33C18 31.343 16.657 30 15 30ZM33 30C31.343 30 30 31.343 30 33C30 34.657 31.343 36 33 36C34.657 36 36 34.657 36 33C36 31.343 34.657 30 33 30Z" fill="#2F2C25"/>
</svg>
