<svg width="48" height="48" viewBox="0 0 48 48" fill="none" xmlns="http://www.w3.org/2000/svg">
<g clip-path="url(#clip0_2071_854)">
<path d="M40.7285 0.201172L34.8848 6.04492C33.7475 7.18215 33.7232 8.99794 34.793 10.1758L30.8164 14.1523L30.8203 14.1406C27.5703 11.5406 23.47 10 19 10C8.52 10 0 18.52 0 29C0 39.48 8.52 48 19 48C29.48 48 38 39.48 38 29C38 25.81 37.2203 22.8197 35.8203 20.1797L32.8203 23.1797C33.5803 24.9697 34 26.93 34 29C34 37.27 27.27 44 19 44C10.73 44 4 37.27 4 29C4 20.73 10.73 14 19 14C22.37 14 25.4705 15.1105 27.9805 16.9805L27.9902 16.9746L25.1074 19.8574L25.1094 19.8496C23.3594 18.6796 21.26 18 19 18C12.93 18 8 22.93 8 29C8 35.07 12.93 40 19 40C25.07 40 30 35.07 30 29C30 28.08 29.8902 27.1801 29.6602 26.3301L25.9102 30.0898C25.3902 33.4398 22.49 36 19 36C15.14 36 12 32.86 12 29C12 25.14 15.14 22 19 22C20.15 22 21.2297 22.2693 22.1797 22.7793L17.6797 27.2793C16.8397 28.1193 16.8397 29.4803 17.6797 30.3203C18.0997 30.7403 18.6492 30.9492 19.1992 30.9492C19.7492 30.9492 20.3007 30.7403 20.7207 30.3203L37.8359 13.2148C39.0141 14.2749 40.8212 14.2491 41.9551 13.1152L47.7988 7.27148L47.0918 6.56445C45.5298 5.00245 42.9975 5.00245 41.4355 6.56445C42.9975 5.00245 42.9975 2.4702 41.4355 0.908203L40.7285 0.201172Z" fill="#2F2C25"/>
</g>
<defs>
<clipPath id="clip0_2071_854">
<rect width="48" height="48" fill="white"/>
</clipPath>
</defs>
</svg>
