<svg width="24" height="24" viewBox="0 0 24 24" fill="none" xmlns="http://www.w3.org/2000/svg">
<path d="M11.9883 0.990204C11.7897 0.993309 11.6005 1.07504 11.4621 1.21746C11.3237 1.35989 11.2474 1.55139 11.25 1.74997V13.4375L8.53125 10.7187C8.46114 10.6468 8.3773 10.5897 8.28471 10.5507C8.19211 10.5118 8.09263 10.4919 7.99219 10.4922C7.84264 10.4918 7.6964 10.5362 7.57224 10.6195C7.44808 10.7029 7.35168 10.8215 7.29542 10.96C7.23916 11.0986 7.22559 11.2508 7.25648 11.3971C7.28737 11.5435 7.36129 11.6772 7.46875 11.7812L11.4688 15.7812C11.5384 15.8511 11.6212 15.9066 11.7124 15.9444C11.8036 15.9823 11.9013 16.0018 12 16.0018C12.0987 16.0018 12.1964 15.9823 12.2876 15.9444C12.3788 15.9066 12.4616 15.8511 12.5312 15.7812L16.5312 11.7812C16.601 11.7115 16.6564 11.6286 16.6941 11.5375C16.7319 11.4463 16.7514 11.3486 16.7514 11.25C16.7514 11.1513 16.7319 11.0536 16.6942 10.9624C16.6564 10.8713 16.6011 10.7884 16.5313 10.7187C16.4615 10.6489 16.3787 10.5935 16.2876 10.5558C16.1964 10.518 16.0987 10.4986 16 10.4986C15.9013 10.4986 15.8036 10.5181 15.7125 10.5558C15.6213 10.5936 15.5385 10.6489 15.4688 10.7187L12.75 13.4375V1.74997C12.7513 1.64967 12.7325 1.55012 12.6946 1.45722C12.6568 1.36433 12.6007 1.27996 12.5297 1.20912C12.4587 1.13829 12.3742 1.08241 12.2812 1.04481C12.1882 1.00721 12.0886 0.988638 11.9883 0.990204ZM2.75 2.99997C2.55109 2.99999 2.36034 3.07901 2.21969 3.21966C2.07904 3.36031 2.00002 3.55106 2 3.74997V20.25C2.00002 20.4489 2.07904 20.6396 2.21969 20.7803C2.36034 20.9209 2.55109 21 2.75 21H21.25C21.4489 21 21.6397 20.9209 21.7803 20.7803C21.921 20.6396 22 20.4489 22 20.25V3.74997C22 3.55106 21.921 3.36031 21.7803 3.21966C21.6397 3.07901 21.4489 2.99999 21.25 2.99997H16.75C16.6506 2.99856 16.5519 3.01692 16.4597 3.05398C16.3675 3.09105 16.2836 3.14607 16.2128 3.21585C16.142 3.28563 16.0858 3.36879 16.0474 3.46048C16.0091 3.55217 15.9893 3.65058 15.9893 3.74997C15.9893 3.84936 16.0091 3.94777 16.0474 4.03946C16.0858 4.13115 16.142 4.21431 16.2128 4.28409C16.2836 4.35387 16.3675 4.40889 16.4597 4.44595C16.5519 4.48301 16.6506 4.50137 16.75 4.49997H20.5V19.5H3.5V4.49997H7.25C7.34938 4.50137 7.44806 4.48301 7.54028 4.44595C7.63251 4.40889 7.71645 4.35387 7.78723 4.28409C7.858 4.21431 7.91421 4.13115 7.95257 4.03946C7.99093 3.94777 8.01068 3.84936 8.01068 3.74997C8.01068 3.65058 7.99093 3.55217 7.95257 3.46048C7.91421 3.36879 7.858 3.28563 7.78723 3.21585C7.71645 3.14607 7.63251 3.09105 7.54028 3.05398C7.44806 3.01692 7.34938 2.99856 7.25 2.99997H2.75Z" fill="#2F2C25"/>
</svg>
