<svg width="48" height="48" viewBox="0 0 48 48" fill="none" xmlns="http://www.w3.org/2000/svg">
<path d="M41.4 26.7C41.5 25.8 41.6 24.9 41.6 24C41.6 23.1 41.5 22.2 41.4 21.3L45.8 17.8C46.2 17.5 46.3 16.9 46 16.5L41.8 9.3C41.5 8.9 40.9 8.7 40.5 8.9L35.4 11C34 9.9 32.4 9 30.7 8.3L29.9 2.9C29.9 2.4 29.4 2 28.9 2H20.5C20 2 19.6 2.4 19.5 2.9L18.7 8.3C17 9 15.4 9.9 14 11L8.9 8.9C8.5 8.7 7.9 8.9 7.6 9.3L3.4 16.5C3.1 16.9 3.2 17.5 3.6 17.8L8 21.3C7.9 22.2 7.8 23.1 7.8 24C7.8 24.9 7.9 25.8 8 26.7L3.6 30.2C3.2 30.5 3.1 31.1 3.4 31.5L7.6 38.7C7.9 39.1 8.5 39.3 8.9 39.1L14 37C15.4 38.1 17 39 18.7 39.7L19.5 45.1C19.6 45.6 20 46 20.5 46H28.9C29.4 46 29.8 45.6 29.9 45.1L30.7 39.7C32.4 39 34 38.1 35.4 37L40.5 39.1C40.9 39.3 41.5 39.1 41.8 38.7L46 31.5C46.3 31.1 46.2 30.5 45.8 30.2L41.4 26.7ZM24.7 31C20.8 31 17.7 27.9 17.7 24C17.7 20.1 20.8 17 24.7 17C28.6 17 31.7 20.1 31.7 24C31.7 27.9 28.6 31 24.7 31Z" fill="#2F2C25"/>
</svg>
