<svg width="48" height="48" viewBox="0 0 48 48" fill="none" xmlns="http://www.w3.org/2000/svg">
<path d="M24 4C13.52 4 5 12.52 5 23H7.68945C8.90945 23 9.97039 22.1199 10.1504 20.9199C11.1604 14.1799 16.99 9 24 9C27.49 9 30.8302 10.2909 33.4102 12.6309L34.9609 10.9297C35.9909 9.78969 35.7602 8.00039 34.4902 7.15039C31.3902 5.10039 27.76 4 24 4ZM39.3594 11.8105L37.1797 13.4004C36.1997 14.1104 35.8502 15.4398 36.4102 16.5098C37.4602 18.4998 38 20.71 38 23V26H35V23.3906C35 17.5006 30.5209 12.3495 24.6309 12.0195C22.1909 11.8795 19.8105 12.5402 17.8105 13.9102L19.0391 15.6992C19.8591 16.9092 21.3298 17.4309 22.7598 17.1309C23.3998 16.9909 24.0702 16.9591 24.7402 17.0391C27.7902 17.4091 30 20.1605 30 23.2305V26H26V22.5C26 21.81 25.7195 21.1805 25.2695 20.7305C24.8195 20.2805 24.19 20 23.5 20C22.12 20 21 21.12 21 22.5V26H18V23C18 21.82 18.3402 20.6695 18.9902 19.6895L17.2207 18.5195C15.8507 17.6195 13.9507 18.2308 13.4707 19.8008C13.1607 20.8308 13 21.91 13 23V26H0V27C0 28.657 1.343 30 3 30H48V29C48 27.343 46.657 26 45 26H43V23C43 18.95 41.7394 15.0805 39.3594 11.8105ZM5 33V41H7.5C8.88 41 10 39.88 10 38.5V33H5ZM13 33V43H15.5C16.88 43 18 41.88 18 40.5V33H13ZM30.5 33C30.19 33.41 30 33.94 30 34.5V43H32.5C33.88 43 35 41.88 35 40.5V33H30.5ZM38 33V41H40.5C41.88 41 43 39.88 43 38.5V33H38ZM23.5 36C22.12 36 21 37.12 21 38.5V45H23.5C24.88 45 26 43.88 26 42.5V36H23.5Z" fill="#2F2C25"/>
</svg>
