<svg width="48" height="48" viewBox="0 0 48 48" fill="none" xmlns="http://www.w3.org/2000/svg">
<path d="M7 16H15V28C15 30.209 13.209 32 11 32H3V20C3 17.791 4.791 16 7 16ZM26 12V22H30V26H26V37H30V41H22V26H18V22H22V12C22 9.24 24.24 7 27 7H30V11H27C26.45 11 26 11.45 26 12ZM36 33H43V42C43 43.657 41.657 45 40 45H33V36C33 34.343 34.343 33 36 33ZM36 3H43V12C43 13.657 41.657 15 40 15H33V6C33 4.343 34.343 3 36 3ZM36 18H43V27C43 28.657 41.657 30 40 30H33V21C33 19.343 34.343 18 36 18Z" fill="#2F2C25"/>
</svg>
