<svg width="97" height="96" viewBox="0 0 97 96" fill="none" xmlns="http://www.w3.org/2000/svg">
<rect x="0.382812" width="96" height="96" rx="48" fill="#D1EB24"/>
<path d="M57.6423 51.6652C56.5229 58.1458 53.6464 62.8981 47.7379 65.1303C39.5978 68.2265 32.2193 62.7541 31.9005 53.5013C31.6277 45.6886 34.5537 38.812 38.2305 32.1514C37.8338 33.8436 37.3557 35.4997 37.0758 37.1919C36.7818 38.992 36.4099 40.8281 36.5587 42.6282C36.796 45.5085 36.9873 48.533 37.9756 51.1973C40.5579 58.2179 46.8595 60.0178 52.9168 55.7694C54.5002 54.6533 55.8711 53.2494 57.6457 51.6652H57.6423Z" fill="black"/>
<path d="M48.5704 56.2377C44.9572 57.1378 42.2049 55.9857 40.2247 52.8174C37.7026 48.749 37.554 44.2486 38.103 39.6762C38.3935 37.264 39.1764 34.9237 39.6581 32.5114C40.023 30.6753 40.8482 29.7393 42.8425 30.0633C43.9017 30.2433 45.0104 30.0991 46.3422 30.0991C43.8768 39.136 41.7267 48.029 48.5704 56.2377Z" fill="black"/>
<path d="M64.879 51.3773C65.0774 59.226 57.4297 66.7147 50.1893 65.5986C55.6551 62.3943 58.1912 57.4618 59.0874 51.3773H64.879Z" fill="black"/>
</svg>
