<svg width="97" height="96" viewBox="0 0 97 96" fill="none" xmlns="http://www.w3.org/2000/svg">
<rect x="0.382812" width="96" height="96" rx="48" fill="#68B24C"/>
<path d="M32.6867 34.2172H36.9908V66H41.2988V50.1067C50.1148 50.1067 57.8149 54.8023 61.9309 61.7789H56.7588C54.0308 58.3141 50.1107 55.7899 45.6027 54.7944V59.1528C49.3747 60.2424 52.5429 62.7273 54.4709 66H68.3828C66.0508 57.8397 59.9868 51.216 52.1068 47.9981C59.9868 44.7841 66.0508 38.1564 68.3828 30H54.4709C52.5429 33.2727 49.3747 35.7576 45.6027 36.8472V41.2056C50.1107 40.2101 54.0268 37.686 56.7588 34.2172H61.9309C57.8149 41.1939 50.1148 45.8895 41.2988 45.8895V30H28.3828V66H32.6867V34.2211V34.2172Z" fill="white"/>
</svg>
