<svg width="120" height="25" viewBox="0 0 120 25" fill="none" xmlns="http://www.w3.org/2000/svg">
<path d="M0 24.4V6.736H3.616V24.4H0ZM0 4.752V0.751999H3.616V4.752H0Z" fill="#2F2C25"/>
<path d="M7.25 24.4V6.736H10.674V8.624C11.442 7.81333 12.2313 7.22667 13.042 6.864C13.8527 6.50133 14.7913 6.32 15.858 6.32C18.2473 6.32 20.018 7.03467 21.17 8.464C22.322 9.872 22.898 12.048 22.898 14.992V24.4H19.282V15.568C19.282 13.4987 18.9513 11.9947 18.29 11.056C17.65 10.1173 16.626 9.648 15.218 9.648C13.746 9.648 12.6473 10.1387 11.922 11.12C11.218 12.08 10.866 13.584 10.866 15.632V24.4H7.25Z" fill="#2F2C25"/>
<path d="M32.036 24.4L24.836 6.736H28.772L33.572 19.472L38.34 6.736H42.34L35.14 24.4H32.036Z" fill="#2F2C25"/>
<path d="M43.5445 15.632C43.5445 14.288 43.7685 13.0507 44.2165 11.92C44.6645 10.768 45.2938 9.78666 46.1045 8.976C46.9152 8.144 47.8752 7.49333 48.9845 7.024C50.1152 6.55467 51.3312 6.32 52.6325 6.32C53.9978 6.32 55.1605 6.56533 56.1205 7.056C57.1018 7.52533 57.9872 8.29333 58.7765 9.36V6.736H62.1685V24.4H58.7765V21.84C57.9018 22.9067 56.9845 23.6747 56.0245 24.144C55.0858 24.592 53.9552 24.816 52.6325 24.816C51.3098 24.816 50.0938 24.592 48.9845 24.144C47.8752 23.6747 46.9152 23.0347 46.1045 22.224C45.2938 21.392 44.6645 20.4213 44.2165 19.312C43.7685 18.1813 43.5445 16.9547 43.5445 15.632ZM47.1925 15.664C47.1925 16.496 47.3312 17.2747 47.6085 18C47.9072 18.704 48.3125 19.3227 48.8245 19.856C49.3578 20.368 49.9765 20.7733 50.6805 21.072C51.4058 21.3493 52.1845 21.488 53.0165 21.488C53.8485 21.488 54.6058 21.3493 55.2885 21.072C55.9925 20.7733 56.6005 20.368 57.1125 19.856C57.6245 19.3227 58.0192 18.6933 58.2965 17.968C58.5738 17.2427 58.7125 16.4533 58.7125 15.6C58.7125 14.7467 58.5632 13.9573 58.2645 13.232C57.9872 12.4853 57.5818 11.856 57.0485 11.344C56.5365 10.8107 55.9178 10.3947 55.1925 10.096C54.4885 9.79733 53.7098 9.648 52.8565 9.648C52.0458 9.648 51.2992 9.808 50.6165 10.128C49.9338 10.4267 49.3365 10.8427 48.8245 11.376C48.3125 11.9093 47.9072 12.5493 47.6085 13.296C47.3312 14.0213 47.1925 14.8107 47.1925 15.664Z" fill="#2F2C25"/>
<path d="M65.8125 24.4V6.736H69.2045V8.72C69.4818 8.29333 69.7592 7.93066 70.0365 7.632C70.3138 7.312 70.6232 7.06667 70.9645 6.896C71.3058 6.704 71.6898 6.56533 72.1165 6.48C72.5432 6.39467 73.0445 6.34133 73.6205 6.32V9.84C72.2125 9.904 71.1565 10.32 70.4525 11.088C69.7698 11.8347 69.4285 12.944 69.4285 14.416V24.4H65.8125Z" fill="#2F2C25"/>
<path d="M76.0625 24.4V6.736H79.6785V24.4H76.0625ZM76.0625 4.752V0.751999H79.6785V4.752H76.0625Z" fill="#2F2C25"/>
<path d="M82.5445 15.6C82.5445 14.2987 82.7792 13.0827 83.2485 11.952C83.7392 10.8213 84.4112 9.84 85.2645 9.008C86.1178 8.176 87.1098 7.52533 88.2405 7.056C89.3925 6.56533 90.6298 6.32 91.9525 6.32C93.2325 6.32 94.4378 6.56533 95.5685 7.056C96.6992 7.54666 97.6805 8.208 98.5125 9.04C99.3445 9.872 99.9952 10.8533 100.465 11.984C100.955 13.1147 101.201 14.32 101.201 15.6C101.201 16.9013 100.955 18.1173 100.465 19.248C99.9952 20.3573 99.3445 21.328 98.5125 22.16C97.6805 22.9707 96.6992 23.6213 95.5685 24.112C94.4378 24.5813 93.2325 24.816 91.9525 24.816C90.6298 24.816 89.3925 24.5813 88.2405 24.112C87.1098 23.6427 86.1178 22.992 85.2645 22.16C84.4112 21.3067 83.7392 20.3253 83.2485 19.216C82.7792 18.0853 82.5445 16.88 82.5445 15.6ZM91.8885 21.488C92.6778 21.488 93.4138 21.3387 94.0965 21.04C94.8005 20.7413 95.3978 20.3253 95.8885 19.792C96.4005 19.2587 96.7952 18.64 97.0725 17.936C97.3712 17.232 97.5205 16.464 97.5205 15.632C97.5205 14.7787 97.3712 13.9893 97.0725 13.264C96.7952 12.5387 96.4005 11.9093 95.8885 11.376C95.3765 10.8427 94.7685 10.4267 94.0645 10.128C93.3605 9.808 92.6032 9.648 91.7925 9.648C91.0245 9.648 90.2992 9.808 89.6165 10.128C88.9338 10.4267 88.3365 10.8533 87.8245 11.408C87.3125 11.9413 86.9072 12.5707 86.6085 13.296C86.3312 14 86.1925 14.768 86.1925 15.6C86.1925 16.432 86.3312 17.2107 86.6085 17.936C86.9072 18.64 87.3125 19.2587 87.8245 19.792C88.3578 20.3253 88.9658 20.7413 89.6485 21.04C90.3525 21.3387 91.0992 21.488 91.8885 21.488Z" fill="#2F2C25"/>
<path d="M104.062 24.4V6.736H107.487V8.624C108.255 7.81333 109.044 7.22667 109.854 6.864C110.665 6.50133 111.604 6.32 112.671 6.32C115.06 6.32 116.83 7.03467 117.982 8.464C119.134 9.872 119.711 12.048 119.711 14.992V24.4H116.094V15.568C116.094 13.4987 115.764 11.9947 115.103 11.056C114.463 10.1173 113.438 9.648 112.031 9.648C110.559 9.648 109.46 10.1387 108.734 11.12C108.03 12.08 107.678 13.584 107.678 15.632V24.4H104.062Z" fill="#2F2C25"/>
</svg>
