<svg width="169" height="23" viewBox="0 0 169 23" fill="none" xmlns="http://www.w3.org/2000/svg">
<path d="M12.7921 8.48509C11.5099 8.07714 10.2278 7.72747 8.8 7.72747C5.09934 7.72747 2.91391 10.1752 2.91391 13.5261C2.91391 16.848 5.09934 19.3248 8.8 19.3248C10.257 19.3248 11.5391 18.946 12.7921 18.5672V21.3646C11.4225 21.8016 10.0821 22.0348 8.77086 22.0348C3.61324 22.0348 0 18.5089 0 13.5261C0 8.54337 3.61324 5.01754 8.77086 5.01754C10.0821 5.01754 11.4225 5.25065 12.7921 5.68774V8.48509Z" fill="#2F2C25"/>
<path d="M22.8769 5.01754C27.8014 5.01754 31.2981 8.7182 31.2981 13.5261C31.2981 18.3341 27.8014 22.0348 22.8769 22.0348C17.9524 22.0348 14.4557 18.3341 14.4557 13.5261C14.4557 8.7182 17.9524 5.01754 22.8769 5.01754ZM17.3696 13.5261C17.3696 16.8189 19.4968 19.354 22.8769 19.354C26.257 19.354 28.355 16.8189 28.355 13.5261C28.355 10.2334 26.257 7.69834 22.8769 7.69834C19.4968 7.69834 17.3696 10.2334 17.3696 13.5261Z" fill="#2F2C25"/>
<path d="M33.8799 5.36721H36.7646V8.48509C37.5805 6.15396 39.4454 5.01754 41.7474 5.01754C44.8362 5.01754 47.4295 7.11555 47.4295 11.5156V21.6851H44.5156V11.7487C44.5156 9.24271 43.3209 7.55264 40.7858 7.55264C38.0759 7.55264 36.7938 9.50496 36.7938 12.1858V21.6851H33.8799V5.36721Z" fill="#2F2C25"/>
<path d="M56.566 21.8599C53.3024 21.8599 51.9037 20.3156 51.9037 17.1977V7.98973H49.4269V5.36721H51.9037V2.07449L54.8176 1.22946V5.36721H59.072V7.98973H54.8176V16.7606C54.8176 18.742 55.4296 19.1791 56.9739 19.1791C57.7024 19.1791 58.4309 19.0917 59.072 18.9752V21.6268C58.2269 21.7725 57.411 21.8599 56.566 21.8599Z" fill="#2F2C25"/>
<path d="M61.71 5.36721H64.6239V21.6851H61.71V5.36721ZM61.6808 2.68642V0.0347595H64.7113V2.68642H61.6808Z" fill="#2F2C25"/>
<path d="M67.9703 5.36721H70.8551V8.48509C71.671 6.15396 73.5359 5.01754 75.8378 5.01754C78.9266 5.01754 81.52 7.11555 81.52 11.5156V21.6851H78.6061V11.7487C78.6061 9.24271 77.4114 7.55264 74.8763 7.55264C72.1663 7.55264 70.8842 9.50496 70.8842 12.1858V21.6851H67.9703V5.36721Z" fill="#2F2C25"/>
<path d="M91.3733 22.0348C87.0024 22.0348 84.7296 19.3831 84.7296 15.0122V5.36721H87.6435V15.2162C87.6435 17.6348 88.8673 19.3831 91.4024 19.3831C93.9958 19.3831 95.1322 17.6056 95.1322 15.1579V5.36721H98.0461V15.0122C98.0461 19.3831 95.7442 22.0348 91.3733 22.0348Z" fill="#2F2C25"/>
<path d="M107.906 22.0348C103.535 22.0348 101.263 19.3831 101.263 15.0122V5.36721H104.176V15.2162C104.176 17.6348 105.4 19.3831 107.935 19.3831C110.529 19.3831 111.665 17.6056 111.665 15.1579V5.36721H114.579V15.0122C114.579 19.3831 112.277 22.0348 107.906 22.0348Z" fill="#2F2C25"/>
<path d="M117.854 5.36721H120.739V8.45595C121.525 6.15396 123.361 5.01754 125.576 5.01754C127.849 5.01754 129.859 6.24138 130.704 8.74734C131.52 6.24138 133.56 5.01754 135.862 5.01754C138.892 5.01754 141.427 7.11555 141.427 11.5156V21.6851H138.513V11.7487C138.513 9.24271 137.377 7.55264 134.959 7.55264C132.336 7.55264 131.112 9.50496 131.112 12.1858V21.6851H128.198V11.7487C128.198 9.24271 127.062 7.55264 124.614 7.55264C121.992 7.55264 120.768 9.50496 120.768 12.1858V21.6851H117.854V5.36721Z" fill="#2F2C25"/>
<path d="M144.338 18.4215H147.777V21.6851H144.338V18.4215Z" fill="#2F2C25"/>
<path d="M149.853 17.6348C149.853 15.4202 151.281 13.7593 153.874 12.9434L159.352 11.1659C159.206 8.65992 158.012 7.6692 155.651 7.6692C154.282 7.6692 152.796 7.98973 150.669 8.80562V6.00827C152.504 5.42549 154.311 5.01754 156.001 5.01754C160.343 5.01754 162.266 7.72747 162.266 11.6321V21.6851H159.41V19.2957C158.507 20.9858 156.759 22.0348 154.602 22.0348C151.63 22.0348 149.853 20.1116 149.853 17.6348ZM152.796 17.4016C152.796 18.7129 153.845 19.7036 155.447 19.7036C157.429 19.7036 159.352 18.2175 159.352 16.003V13.5553L155.01 14.954C153.495 15.4202 152.796 16.2944 152.796 17.4016Z" fill="#2F2C25"/>
<path d="M165.518 5.36721H168.432V21.6851H165.518V5.36721ZM165.489 2.68642V0.0347595H168.519V2.68642H165.489Z" fill="#2F2C25"/>
</svg>
