<svg width="253" height="32" viewBox="0 0 253 32" fill="none" xmlns="http://www.w3.org/2000/svg">
<path d="M0.383301 31.6828L2.90152 29.2045V5.25403L0.383301 2.77571H7.60086L5.93527 4.44114V30.0173L7.60086 31.6828H0.383301ZM6.2327 5.25403C6.88043 4.50062 7.68679 3.89922 8.65177 3.44981C9.62998 3.00041 10.6875 2.77571 11.8243 2.77571C12.8025 2.77571 13.7146 2.94093 14.5607 3.27138C15.4199 3.5886 16.1734 4.03139 16.8211 4.59975C17.4688 5.16811 17.9778 5.84221 18.3479 6.62206C18.718 7.38868 18.9031 8.20157 18.9031 9.06072C18.9031 10.2239 18.5726 11.2879 17.9117 12.2528C17.2639 13.2177 16.4113 13.9711 15.3538 14.513C16.6493 14.5659 17.8588 14.8236 18.9824 15.2862C20.1192 15.7356 21.0974 16.3437 21.917 17.1103C22.7498 17.8637 23.4042 18.7361 23.88 19.7274C24.3691 20.7187 24.6137 21.7827 24.6137 22.9195C24.6137 24.0826 24.3559 25.1797 23.8404 26.2107C23.3381 27.2284 22.6375 28.1206 21.7386 28.8872C20.8397 29.6406 19.7954 30.2421 18.6057 30.6915C17.416 31.1409 16.1469 31.3656 14.7986 31.3656C13.1462 31.3656 11.626 31.0483 10.238 30.4139C8.86328 29.7662 7.72644 28.9137 6.82755 27.8563C7.60747 28.4775 8.49975 28.9798 9.5044 29.3631C10.509 29.7464 11.593 29.938 12.7563 29.938C13.9195 29.938 15.0233 29.753 16.0676 29.3829C17.1119 28.9996 18.0108 28.4775 18.7643 27.8166C19.531 27.1425 20.1325 26.3693 20.5687 25.4969C21.0181 24.6113 21.2428 23.6663 21.2428 22.6617C21.2428 21.6572 21.0181 20.7121 20.5687 19.8265C20.1325 18.9277 19.531 18.1479 18.7643 17.487C18.0108 16.8261 17.1119 16.3106 16.0676 15.9405C15.0233 15.5572 13.9195 15.3656 12.7563 15.3656C11.9763 15.3656 11.1832 15.4713 10.3768 15.6828V14.8302C11.1832 14.8038 11.9433 14.6452 12.6571 14.3544C13.3842 14.0504 14.0055 13.6605 14.521 13.1846C15.0498 12.7088 15.4595 12.1537 15.7504 11.5192C16.0544 10.8848 16.2064 10.2173 16.2064 9.51673C16.2064 8.78976 16.0412 8.10244 15.7107 7.45477C15.3935 6.79389 14.9506 6.22553 14.3822 5.74969C13.8138 5.27385 13.1528 4.89715 12.3994 4.61958C11.6459 4.32879 10.8329 4.1834 9.96045 4.1834C9.25984 4.1834 8.5989 4.28253 7.9776 4.48079C7.35631 4.66584 6.77468 4.92359 6.2327 5.25403Z" fill="#FEFAF3"/>
<path d="M26.4577 31.6828L29.1346 28.9665L42.1817 1.3482L55.1694 28.9665L57.8462 31.6828H49.8157L51.6002 29.8984L46.5241 17.2292H37.7798L32.7037 29.8984L34.5081 31.6828H26.4577ZM38.5134 15.4845H45.8302L42.1817 6.34449L38.5134 15.4845Z" fill="#FEFAF3"/>
<path d="M61.217 31.6828L63.6956 29.2045V5.25403L61.217 2.77571H69.2674L66.7888 5.25403V29.2045L69.2674 31.6828H61.217Z" fill="#FEFAF3"/>
<path d="M71.4089 2.77571H75.9496L94.5884 26.7261V5.29368L92.0701 2.77571H100.16L97.6419 5.29368V29.2838L100.16 31.8017H95.4806L78.3488 10.29V29.2838L80.8671 31.8017H72.777L75.2556 29.2838V6.74102L71.4089 2.77571Z" fill="#FEFAF3"/>
<path d="M103.412 17.2689C103.412 15.2334 103.828 13.3234 104.661 11.539C105.507 9.75465 106.651 8.19496 108.092 6.85998C109.546 5.51177 111.244 4.45436 113.187 3.68773C115.144 2.90789 117.232 2.51797 119.453 2.51797C121.132 2.51797 122.732 2.74928 124.252 3.2119C125.785 3.67451 127.2 4.31557 128.495 5.13507H131.093L131.509 12.6295C131.02 11.5721 130.366 10.5675 129.546 9.61586C128.74 8.65097 127.814 7.80504 126.77 7.07807C125.739 6.35109 124.595 5.76952 123.34 5.33333C122.097 4.89715 120.802 4.67906 119.453 4.67906C117.642 4.67906 115.944 5.02272 114.357 5.71004C112.771 6.39736 111.383 7.32259 110.193 8.48575C109.004 9.63569 108.058 10.9575 107.358 12.4511C106.671 13.9314 106.327 15.4713 106.327 17.0706C106.327 18.67 106.671 20.2164 107.358 21.71C108.058 23.1904 109.004 24.5056 110.193 25.6555C111.383 26.8055 112.764 27.7241 114.338 28.4114C115.924 29.0987 117.629 29.4424 119.453 29.4424C120.669 29.4424 121.853 29.2639 123.003 28.9071C124.153 28.537 125.237 28.0479 126.254 27.4399C127.272 26.8319 128.198 26.1314 129.03 25.3383C129.876 24.532 130.584 23.6927 131.152 22.8203L131.093 29.2045H128.872C127.523 30.1033 126.056 30.7972 124.47 31.2862C122.884 31.7621 121.211 32 119.453 32C117.232 32 115.144 31.6167 113.187 30.8501C111.244 30.0834 109.546 29.0392 108.092 27.7175C106.651 26.3825 105.507 24.8162 104.661 23.0186C103.828 21.221 103.412 19.3044 103.412 17.2689Z" fill="#FEFAF3"/>
<path d="M134.404 31.6828L136.922 29.2045V5.25403L134.404 2.77571H141.641L139.976 4.44114V4.99628C140.756 4.19 141.694 3.54895 142.791 3.07311C143.889 2.59727 145.085 2.35936 146.38 2.35936C147.544 2.35936 148.647 2.56423 149.692 2.97398C150.736 3.38373 151.641 3.93887 152.408 4.63941C153.188 5.33994 153.796 6.16605 154.232 7.11772C154.682 8.06939 154.907 9.08715 154.907 10.171C154.907 11.2549 154.682 12.2726 154.232 13.2243C153.796 14.1627 153.188 14.9822 152.408 15.6828C151.641 16.3833 150.736 16.9385 149.692 17.3482C148.647 17.758 147.544 17.9628 146.38 17.9628C146.248 17.9628 146.116 17.9628 145.984 17.9628C145.852 17.9628 145.713 17.9496 145.567 17.9232L145.607 17.9628L160.201 31.6828H155.164L139.976 15.3259V29.2045L142.494 31.6828H134.404ZM139.559 10.171C139.559 10.9244 139.718 11.6316 140.035 12.2924C140.366 12.9533 140.815 13.5283 141.384 14.0173C141.965 14.5064 142.633 14.8963 143.386 15.1871C144.14 15.4647 144.953 15.6035 145.825 15.6035H145.904C146.737 15.6035 147.53 15.4647 148.284 15.1871C149.051 14.8963 149.712 14.5064 150.267 14.0173C150.822 13.5283 151.258 12.9533 151.575 12.2924C151.906 11.6316 152.071 10.9244 152.071 10.171C152.071 9.4176 151.906 8.71045 151.575 8.04957C151.258 7.37546 150.822 6.79389 150.267 6.30483C149.712 5.81578 149.051 5.43247 148.284 5.15489C147.53 4.86411 146.737 4.71871 145.904 4.71871H145.825C144.953 4.71871 144.14 4.86411 143.386 5.15489C142.633 5.43247 141.965 5.81578 141.384 6.30483C140.815 6.79389 140.366 7.37546 140.035 8.04957C139.718 8.71045 139.559 9.4176 139.559 10.171Z" fill="#FEFAF3"/>
<path d="M160.26 17.2689C160.26 15.2334 160.677 13.3234 161.509 11.539C162.355 9.75465 163.506 8.19496 164.96 6.85998C166.414 5.51177 168.106 4.45436 170.036 3.68773C171.966 2.90789 174.041 2.51797 176.262 2.51797C178.483 2.51797 180.558 2.90789 182.488 3.68773C184.431 4.45436 186.123 5.51177 187.564 6.85998C189.018 8.19496 190.162 9.75465 190.994 11.539C191.84 13.3234 192.263 15.2334 192.263 17.2689C192.263 19.3044 191.84 21.221 190.994 23.0186C190.162 24.8162 189.018 26.3825 187.564 27.7175C186.123 29.0392 184.431 30.0834 182.488 30.8501C180.558 31.6167 178.483 32 176.262 32C174.041 32 171.966 31.6167 170.036 30.8501C168.106 30.0834 166.414 29.0392 164.96 27.7175C163.506 26.3825 162.355 24.8162 161.509 23.0186C160.677 21.221 160.26 19.3044 160.26 17.2689ZM163.195 17.0706C163.195 18.67 163.539 20.2164 164.226 21.71C164.913 23.1904 165.845 24.5056 167.022 25.6555C168.211 26.8055 169.593 27.7241 171.166 28.4114C172.752 29.0987 174.451 29.4424 176.262 29.4424C178.073 29.4424 179.771 29.0987 181.358 28.4114C182.944 27.7241 184.325 26.8055 185.502 25.6555C186.678 24.5056 187.61 23.1904 188.298 21.71C188.998 20.2164 189.349 18.67 189.349 17.0706C189.349 15.4713 188.998 13.9314 188.298 12.4511C187.61 10.9575 186.678 9.63569 185.502 8.48575C184.325 7.32259 182.944 6.39736 181.358 5.71004C179.785 5.02272 178.086 4.67906 176.262 4.67906C174.451 4.67906 172.752 5.02272 171.166 5.71004C169.593 6.39736 168.211 7.32259 167.022 8.48575C165.845 9.63569 164.913 10.9575 164.226 12.4511C163.539 13.9314 163.195 15.4713 163.195 17.0706Z" fill="#FEFAF3"/>
<path d="M195.932 31.6828L198.41 29.2045V5.25403L195.932 2.77571H213.361L213.777 7.772L211.457 5.45229H201.503V15.4449H205.687L206.857 14.2553V18.399L205.687 17.2292H201.503V29.2045L203.982 31.6828H195.932Z" fill="#FEFAF3"/>
<path d="M218.278 7.772L218.695 2.77571H240.784L241.2 7.772L238.88 5.45229H231.286V29.2045L233.764 31.6828H225.714L228.193 29.2045V5.45229H220.598L218.278 7.772Z" fill="#FEFAF3"/>
<path d="M252.383 2.53779C252.383 3.93938 251.247 5.07559 249.845 5.07559C248.444 5.07559 247.307 3.93938 247.307 2.53779C247.307 1.13621 248.444 0 249.845 0C251.247 0 252.383 1.13621 252.383 2.53779Z" fill="#FEFAF3"/>
</svg>
