<svg width="208" height="43" viewBox="0 0 208 43" fill="none" xmlns="http://www.w3.org/2000/svg">
<path fill-rule="evenodd" clip-rule="evenodd" d="M40.9592 14.0211L32.8408 0.0347595H0L8.11792 14.0211L0.36916 27.3958L8.85584 42.0348L16.605 28.6601L24.0258 41.4231H41L33.005 27.6813L40.9592 14.0211ZM32.4721 26.1725L25.83 14.6738H39.155L32.4721 26.1725ZM31.4058 26.7841H17.7121L24.5592 14.9999L31.4058 26.7841ZM39.155 13.4094H25.83L32.4721 1.91033L39.155 13.4094ZM31.0371 1.29868L24.3542 12.7978L17.7121 1.29868H31.0371ZM23.2879 13.4094H9.92208L16.605 1.91033L23.2879 13.4094ZM2.17292 1.29868H15.5392L8.85584 12.7978L2.17292 1.29868ZM8.85584 39.5475L2.17292 28.0484H15.5392L8.85584 39.5475ZM2.17292 26.7841L8.85584 15.2854L12.1771 21.0348L15.5392 26.7841H2.17292ZM9.92208 14.6738H23.2879L16.605 26.1725L9.92208 14.6738ZM17.6708 28.0484H31.0371L24.395 39.5475L17.6708 28.0484ZM38.7858 40.1592H25.4608L32.1442 28.6601L38.7858 40.1592Z" fill="#2F2C25"/>
<path d="M63.025 20.9848C64.875 21.3848 65.975 22.9348 65.975 25.0348C65.975 27.8848 63.625 29.7848 60.875 29.7848H54.05C53.475 29.7848 53 29.3098 53 28.7348V13.3598C53 12.7848 53.475 12.3098 54.05 12.3098H60.625C63.375 12.3098 65.6 14.1098 65.6 16.9348C65.6 18.7348 64.6 20.1098 63.025 20.8098C62.95 20.8598 62.95 20.9598 63.025 20.9848ZM55.5 14.9098V19.4598C55.5 19.6348 55.65 19.8098 55.85 19.8098H60.25C62 19.8098 63.1 18.7848 63.1 17.1848C63.1 15.5848 62 14.5598 60.25 14.5598H55.85C55.65 14.5598 55.5 14.7098 55.5 14.9098ZM60.375 27.5348C62.25 27.5348 63.475 26.5098 63.475 24.7848C63.475 23.0598 62.25 22.0348 60.375 22.0348H55.85C55.65 22.0348 55.5 22.2098 55.5 22.3848V27.1848C55.5 27.3848 55.65 27.5348 55.85 27.5348H60.375Z" fill="#2F2C25"/>
<path d="M83.875 29.3098C83.975 29.5348 83.8 29.7848 83.55 29.7848H81.7C81.55 29.7848 81.425 29.6848 81.375 29.5598L79.8 25.5098C79.75 25.3848 79.625 25.2848 79.475 25.2848H71.625C71.475 25.2848 71.35 25.3848 71.3 25.5098L69.725 29.5598C69.675 29.6848 69.55 29.7848 69.4 29.7848H67.6C67.35 29.7848 67.175 29.5348 67.275 29.3098L73.925 12.5348C73.975 12.3848 74.1 12.3098 74.25 12.3098H76.95C77.1 12.3098 77.225 12.3848 77.275 12.5348L83.875 29.3098ZM78.6 23.0348C78.725 23.0348 78.8 22.9098 78.75 22.8098L75.7 15.0098C75.65 14.8848 75.45 14.8848 75.4 15.0098L72.35 22.8098C72.3 22.9098 72.375 23.0348 72.5 23.0348H78.6Z" fill="#2F2C25"/>
<path d="M87.8893 12.3098C88.0893 12.3098 88.2393 12.4598 88.2393 12.6598V29.4348C88.2393 29.6348 88.0893 29.7848 87.8893 29.7848H86.0893C85.8893 29.7848 85.7393 29.6348 85.7393 29.4348V12.6598C85.7393 12.4598 85.8893 12.3098 86.0893 12.3098H87.8893Z" fill="#2F2C25"/>
<path d="M102.378 27.5348C102.553 27.5348 102.728 27.6848 102.728 27.8848V29.4348C102.728 29.6348 102.553 29.7848 102.378 29.7848H92.4777C91.9027 29.7848 91.4277 29.3098 91.4277 28.7348V12.6598C91.4277 12.4598 91.5777 12.3098 91.7777 12.3098H93.5777C93.7777 12.3098 93.9277 12.4598 93.9277 12.6598V27.1848C93.9277 27.3848 94.0777 27.5348 94.2777 27.5348H102.378Z" fill="#2F2C25"/>
<path d="M117.114 27.5348C117.314 27.5348 117.464 27.6848 117.464 27.8848V29.4348C117.464 29.6348 117.314 29.7848 117.114 29.7848H105.539C104.964 29.7848 104.489 29.3098 104.489 28.7348V13.3598C104.489 12.7848 104.964 12.3098 105.539 12.3098H116.864C117.064 12.3098 117.214 12.4598 117.214 12.6598V14.2098C117.214 14.4098 117.064 14.5598 116.864 14.5598H107.339C107.139 14.5598 106.989 14.7098 106.989 14.9098V19.3348C106.989 19.5098 107.139 19.6848 107.339 19.6848H115.364C115.564 19.6848 115.714 19.8348 115.714 20.0098V21.5848C115.714 21.7598 115.564 21.9098 115.364 21.9098H107.339C107.139 21.9098 106.989 22.0848 106.989 22.2598V27.1848C106.989 27.3848 107.139 27.5348 107.339 27.5348H117.114Z" fill="#2F2C25"/>
<path d="M132.372 12.2848C132.622 12.2848 132.797 12.5848 132.647 12.8348L126.797 22.4598C126.747 22.5098 126.747 22.5598 126.747 22.6348V29.4348C126.747 29.6098 126.572 29.7598 126.397 29.7598H124.597C124.397 29.7598 124.247 29.6098 124.247 29.4348V22.6348C124.247 22.5598 124.222 22.5098 124.197 22.4348L118.322 12.8348C118.172 12.5848 118.347 12.2848 118.622 12.2848H120.697C120.822 12.2848 120.947 12.3598 120.997 12.4598L125.422 19.7348C125.497 19.8598 125.647 19.8598 125.722 19.7348L130.072 12.4598C130.147 12.3598 130.247 12.2848 130.372 12.2848H132.372Z" fill="#2F2C25"/>
<path d="M141.471 20.6348C141.621 20.6348 141.771 20.7598 141.771 20.9348V22.3598C141.771 22.5098 141.621 22.6598 141.471 22.6598H138.696V25.4098C138.696 25.5848 138.571 25.7098 138.421 25.7098H136.971C136.821 25.7098 136.671 25.5848 136.671 25.4098V22.6598H133.921C133.746 22.6598 133.621 22.5098 133.621 22.3598V20.9348C133.621 20.7598 133.746 20.6348 133.921 20.6348H136.671V17.8598C136.671 17.7098 136.821 17.5598 136.971 17.5598H138.421C138.571 17.5598 138.696 17.7098 138.696 17.8598V20.6348H141.471Z" fill="#2F2C25"/>
<path d="M150.362 20.2348C150.312 20.2848 150.362 20.3848 150.437 20.3848L155.362 20.4098C155.937 20.4098 156.412 20.8848 156.412 21.4598V29.4348C156.412 29.6348 156.237 29.7848 156.062 29.7848H154.387C154.187 29.7848 154.037 29.6348 154.037 29.4348V22.9098C154.037 22.7098 153.887 22.5598 153.687 22.5598H147.012C146.812 22.5598 146.662 22.7098 146.662 22.9098V29.4348C146.662 29.6348 146.512 29.7848 146.312 29.7848H144.537C144.337 29.7848 144.187 29.6348 144.187 29.4348V12.6598C144.187 12.4598 144.337 12.3098 144.537 12.3098H146.337C146.387 12.3098 146.412 12.3098 146.462 12.3348C146.587 12.3848 146.687 12.5098 146.687 12.6598V20.2098C146.687 20.3098 146.712 20.4098 146.837 20.4098C146.962 20.4098 147.212 20.0848 147.212 20.0848L153.637 12.5098C153.762 12.3848 153.937 12.3098 154.137 12.3098H156.262C156.562 12.3098 156.737 12.6848 156.512 12.9098L150.362 20.2348Z" fill="#2F2C25"/>
<path d="M170.2 27.5348C170.375 27.5348 170.55 27.6848 170.55 27.8848V29.4348C170.55 29.6348 170.375 29.7848 170.2 29.7848H160.3C159.725 29.7848 159.25 29.3098 159.25 28.7348V12.6598C159.25 12.4598 159.4 12.3098 159.6 12.3098H161.4C161.6 12.3098 161.75 12.4598 161.75 12.6598V27.1848C161.75 27.3848 161.9 27.5348 162.1 27.5348H170.2Z" fill="#2F2C25"/>
<path d="M184.937 27.5348C185.137 27.5348 185.287 27.6848 185.287 27.8848V29.4348C185.287 29.6348 185.137 29.7848 184.937 29.7848H173.362C172.787 29.7848 172.312 29.3098 172.312 28.7348V13.3598C172.312 12.7848 172.787 12.3098 173.362 12.3098H184.687C184.887 12.3098 185.037 12.4598 185.037 12.6598V14.2098C185.037 14.4098 184.887 14.5598 184.687 14.5598H175.162C174.962 14.5598 174.812 14.7098 174.812 14.9098V19.3348C174.812 19.5098 174.962 19.6848 175.162 19.6848H183.187C183.387 19.6848 183.537 19.8348 183.537 20.0098V21.5848C183.537 21.7598 183.387 21.9098 183.187 21.9098H175.162C174.962 21.9098 174.812 22.0848 174.812 22.2598V27.1848C174.812 27.3848 174.962 27.5348 175.162 27.5348H184.937Z" fill="#2F2C25"/>
<path d="M189.745 12.3098C189.945 12.3098 190.095 12.4598 190.095 12.6598V29.4348C190.095 29.6348 189.945 29.7848 189.745 29.7848H187.945C187.745 29.7848 187.595 29.6348 187.595 29.4348V12.6598C187.595 12.4598 187.745 12.3098 187.945 12.3098H189.745Z" fill="#2F2C25"/>
<path d="M207.033 12.3098C207.233 12.3098 207.383 12.4598 207.383 12.6598V29.4348C207.383 29.6348 207.233 29.7848 207.033 29.7848H204.308C204.058 29.7848 203.808 29.6598 203.683 29.4348L196.108 15.9098C196.008 15.7598 195.783 15.8098 195.783 15.9848V29.4348C195.783 29.6348 195.633 29.7848 195.433 29.7848H193.633C193.433 29.7848 193.283 29.6348 193.283 29.4348V12.6598C193.283 12.4598 193.433 12.3098 193.633 12.3098H196.383C196.633 12.3098 196.858 12.4348 196.983 12.6598L204.558 26.2098C204.658 26.3598 204.883 26.3098 204.883 26.1348V12.6598C204.883 12.4598 205.058 12.3098 205.233 12.3098H207.033Z" fill="#2F2C25"/>
</svg>
