<svg width="298" height="48" viewBox="0 0 298 48" fill="none" xmlns="http://www.w3.org/2000/svg">
<path d="M86.1436 44.8318C82.7897 44.8318 79.8315 44.078 77.2689 42.5703C74.7441 41.0627 72.7657 38.9896 71.3337 36.3512C69.9393 33.7127 69.2422 30.7162 69.2422 27.3616C69.2422 24.4594 69.7321 21.7832 70.7119 19.3333C71.6917 16.8833 73.0483 14.7537 74.7818 12.9445C76.5529 11.0976 78.6067 9.6653 80.9431 8.64762C83.3173 7.62993 85.8421 7.12109 88.5177 7.12109C91.8716 7.12109 94.811 7.87493 97.3358 9.38261C99.8983 10.8903 101.877 12.9633 103.271 15.6018C104.703 18.2025 105.419 21.199 105.419 24.5913C105.419 27.4182 104.948 30.0566 104.006 32.5066C103.064 34.9566 101.707 37.105 99.936 38.9519C98.2025 40.7988 96.1676 42.2499 93.8312 43.3053C91.4947 44.323 88.9322 44.8318 86.1436 44.8318ZM87.7263 40.7046C89.7236 40.7046 91.4571 40.1204 92.9267 38.9519C94.3964 37.7835 95.5269 36.1439 96.3183 34.0331C97.1474 31.8847 97.5619 29.4347 97.5619 26.6832C97.5619 21.934 96.601 18.1837 94.6791 15.4322C92.7948 12.643 90.2135 11.2484 86.9349 11.2484C85.0507 11.2484 83.3549 11.8326 81.8476 13.001C80.3402 14.1318 79.1531 15.7525 78.2864 17.8633C77.4574 19.9363 77.0428 22.4052 77.0428 25.2697C77.0428 30.0189 78.0038 33.7881 79.9257 36.5773C81.8476 39.3288 84.4478 40.7046 87.7263 40.7046Z" fill="#FDFDFD"/>
<path d="M119.144 44.8318C117.033 44.8318 115.413 44.1345 114.282 42.7399C113.152 41.3077 112.587 39.1027 112.587 36.125V22.3298L113.661 23.1778L109.986 22.3863C109.723 22.3109 109.496 22.0471 109.308 21.5948C109.157 21.1048 109.082 20.4263 109.082 19.5594C110.853 19.3333 112.247 19.1637 113.265 19.0506C114.282 18.8998 115.111 18.8244 115.752 18.8244C117.109 18.8244 118.107 19.1071 118.748 19.6725C119.426 20.2379 119.765 21.1236 119.765 22.3298V35.3335C119.765 36.9542 120.086 38.1604 120.726 38.9519C121.367 39.7057 122.328 40.0827 123.609 40.0827C124.551 40.0827 125.418 39.9131 126.209 39.5738C127.038 39.1969 127.754 38.7446 128.357 38.2169C128.96 37.6515 129.45 37.1239 129.827 36.6339L129.092 38.0473V22.3298L130.166 23.1778L126.436 22.3863C126.172 22.3109 125.964 22.0471 125.814 21.5948C125.663 21.1048 125.588 20.4263 125.588 19.5594C127.359 19.3333 128.753 19.1637 129.771 19.0506C130.788 18.8998 131.598 18.8244 132.201 18.8244C133.596 18.8244 134.613 19.1071 135.254 19.6725C135.894 20.2379 136.215 21.1236 136.215 22.3298V38.8388C136.215 39.5173 136.346 40.0261 136.61 40.3654C136.912 40.6669 137.326 40.8177 137.854 40.8177C138.231 40.8177 138.626 40.7423 139.041 40.5915C139.455 40.4407 139.813 40.2523 140.115 40.0261L140.737 42.2311C139.908 43.0226 138.89 43.6634 137.684 44.1534C136.516 44.6057 135.386 44.8318 134.293 44.8318C132.861 44.8318 131.711 44.4172 130.845 43.588C129.978 42.7211 129.544 41.5526 129.544 40.0827H129.149C126.021 43.2488 122.686 44.8318 119.144 44.8318Z" fill="#FDFDFD"/>
<path d="M153.264 44.8318C151.078 44.8318 149.458 44.1345 148.402 42.7399C147.385 41.3453 146.876 39.3665 146.876 36.8035V14.4145C147.404 14.0376 148.063 13.6795 148.855 13.3403C149.646 13.001 150.494 12.7183 151.398 12.4922C152.303 12.2283 153.169 12.0587 153.998 11.9834V35.7858C153.998 37.2181 154.225 38.2923 154.677 39.0084C155.167 39.6869 155.977 40.0261 157.107 40.0261C157.823 40.0261 158.596 39.8942 159.425 39.6304C160.254 39.3288 161.083 38.8765 161.912 38.2735L162.986 40.3088C162.496 41.025 161.743 41.7411 160.725 42.4573C159.708 43.1357 158.558 43.7011 157.277 44.1534C155.996 44.6057 154.658 44.8318 153.264 44.8318ZM160.103 22.9517L143.202 22.4994C143.202 21.7832 143.277 21.1048 143.428 20.464C143.616 19.7856 143.861 19.3333 144.163 19.1071L161.403 18.2591C161.516 18.4852 161.592 18.7114 161.63 18.9375C161.667 19.1637 161.686 19.3898 161.686 19.616C161.686 20.4829 161.554 21.2179 161.29 21.8209C161.027 22.3863 160.631 22.7632 160.103 22.9517Z" fill="#FDFDFD"/>
<path d="M174.827 44.8318C171.737 44.8318 169.212 44.2476 167.252 43.0792C165.33 41.9107 164.369 40.4596 164.369 38.7258C164.369 37.7458 164.671 36.9919 165.274 36.4642C165.914 35.8989 166.725 35.6162 167.704 35.6162C168.873 35.6162 169.834 35.9366 170.587 36.5773C170.587 38.5373 170.964 39.9884 171.718 40.9307C172.509 41.873 173.696 42.3442 175.279 42.3442C176.636 42.3442 177.71 42.0238 178.501 41.383C179.292 40.7046 179.688 39.8 179.688 38.6692C179.688 37.7269 179.405 36.9731 178.84 36.4077C178.275 35.8046 177.54 35.3146 176.636 34.9377C175.769 34.5231 174.808 34.1273 173.753 33.7504C172.472 33.2981 171.19 32.7704 169.909 32.1674C168.665 31.5266 167.61 30.6974 166.744 29.6797C165.914 28.6243 165.5 27.2863 165.5 25.6655C165.5 23.3286 166.442 21.4817 168.326 20.1248C170.211 18.7302 172.792 18.0329 176.07 18.0329C177.917 18.0329 179.537 18.2591 180.932 18.7114C182.364 19.126 183.475 19.729 184.267 20.5206C185.096 21.3121 185.51 22.2167 185.51 23.2344C185.51 24.139 185.19 24.8551 184.549 25.3828C183.946 25.9105 183.155 26.1744 182.175 26.1744C181.233 26.1744 180.423 25.8728 179.745 25.2697C179.745 23.7621 179.368 22.5936 178.614 21.7644C177.86 20.9352 176.786 20.5206 175.392 20.5206C174.262 20.5206 173.357 20.7844 172.679 21.3121C172.038 21.8398 171.718 22.5559 171.718 23.4605C171.718 24.2898 171.982 24.9871 172.509 25.5524C173.037 26.0801 173.734 26.5324 174.601 26.9093C175.505 27.2486 176.447 27.6066 177.427 27.9836C178.821 28.4736 180.197 29.0389 181.553 29.6797C182.948 30.3205 184.097 31.1685 185.002 32.2239C185.906 33.2793 186.358 34.6927 186.358 36.4642C186.358 38.1981 185.887 39.6869 184.945 40.9307C184.003 42.1746 182.665 43.1357 180.932 43.8142C179.198 44.4926 177.163 44.8318 174.827 44.8318Z" fill="#FDFDFD"/>
<path d="M202.646 44.8318C198.803 44.8318 195.769 43.7576 193.546 41.6092C191.36 39.4231 190.267 36.4642 190.267 32.7327C190.267 29.8682 190.889 27.3428 192.132 25.1567C193.414 22.9328 195.147 21.199 197.333 19.9552C199.556 18.6737 202.119 18.0329 205.02 18.0329C207.583 18.0329 209.806 18.5417 211.691 19.5594C213.575 20.5394 215.026 21.9529 216.043 23.7998C217.098 25.6467 217.626 27.814 217.626 30.3016C217.626 33.1285 216.985 35.635 215.704 37.8212C214.46 40.0073 212.708 41.7223 210.447 42.9661C208.186 44.2099 205.586 44.8318 202.646 44.8318ZM203.946 42.1746C205.906 42.1746 207.413 41.27 208.469 39.4607C209.561 37.6138 210.108 35.0131 210.108 31.6585C210.108 28.1909 209.561 25.4959 208.469 23.5736C207.413 21.6513 205.906 20.6902 203.946 20.6902C201.987 20.6902 200.479 21.6136 199.424 23.4605C198.369 25.2697 197.842 27.8893 197.842 31.3193C197.842 34.8246 198.35 37.5196 199.368 39.4042C200.423 41.2511 201.949 42.1746 203.946 42.1746Z" fill="#FDFDFD"/>
<path d="M221.914 44.1534C221.914 42.4196 222.215 41.4584 222.818 41.27L226.04 39.9696L225.418 40.8177V22.2167L226.097 23.0648L222.761 22.2167C222.196 22.0659 221.914 21.1425 221.914 19.4463C223.685 19.1448 225.06 18.9375 226.04 18.8244C227.057 18.7114 227.905 18.6548 228.584 18.6548C229.865 18.6548 230.769 18.9375 231.297 19.5029C231.862 20.0683 232.145 20.9729 232.145 22.2167V23.5736L231.919 23.404H232.541C234.161 21.7456 235.894 20.4452 237.741 19.5029C239.625 18.5229 241.415 18.0329 243.111 18.0329C245.221 18.0329 246.766 18.7679 247.746 20.2379C248.726 21.7079 249.216 23.9317 249.216 26.9093V40.9873L248.538 40.1957L252.042 41.0438C252.042 41.76 251.967 42.3442 251.816 42.7965C251.665 43.2111 251.402 43.6634 251.025 44.1534H239.324C239.324 42.4196 239.625 41.4584 240.228 41.27L242.715 40.3654L242.094 41.2134V27.7009C242.094 24.4971 240.982 22.8952 238.758 22.8952C237.854 22.8952 236.968 23.1025 236.102 23.5171C235.235 23.894 234.462 24.3651 233.784 24.9305C233.143 25.4959 232.635 26.0424 232.258 26.5701L232.541 25.609V40.9873L231.862 40.1957L235.367 41.0438C235.367 41.76 235.291 42.3442 235.141 42.7965C234.99 43.2111 234.707 43.6634 234.293 44.1534H221.914ZM255.999 44.1534C255.999 42.4196 256.3 41.4584 256.903 41.27L259.391 40.3654L258.769 41.2134V27.7009C258.769 24.4971 257.657 22.8952 255.434 22.8952C254.152 22.8952 252.928 23.2721 251.76 24.0259C250.629 24.7798 249.725 25.5901 249.046 26.457L248.255 23.404H249.159C250.78 21.7456 252.532 20.4452 254.416 19.5029C256.3 18.5229 258.072 18.0329 259.73 18.0329C261.878 18.0329 263.442 18.7679 264.421 20.2379C265.401 21.7079 265.891 23.9128 265.891 26.8528V40.648L265.269 39.8565L269.396 41.0438C269.396 41.76 269.32 42.3442 269.17 42.7965C269.057 43.2111 268.793 43.6634 268.378 44.1534H255.999Z" fill="#FDFDFD"/>
<path d="M285.412 44.8318C282.925 44.8318 280.739 44.3042 278.855 43.2488C276.971 42.1934 275.501 40.7234 274.446 38.8388C273.429 36.9542 272.92 34.7681 272.92 32.2804C272.92 29.5666 273.523 27.1355 274.729 24.9871C275.935 22.8386 277.555 21.1425 279.59 19.8986C281.663 18.6548 283.961 18.0329 286.486 18.0329C288.672 18.0329 290.575 18.504 292.195 19.4463C293.816 20.351 295.059 21.6325 295.926 23.2909C296.831 24.9117 297.283 26.834 297.283 29.0578C297.283 30.0001 297.151 30.622 296.887 30.9235C296.623 31.1874 296.209 31.3193 295.644 31.3193H278.007V28.662L291.348 28.3228L290.726 29.1709C290.763 27.3616 290.594 25.8351 290.217 24.5913C289.84 23.3098 289.294 22.3486 288.578 21.7079C287.862 21.0294 286.995 20.6902 285.978 20.6902C284.395 20.6902 283.095 21.5382 282.077 23.2344C281.06 24.8928 280.551 27.2109 280.551 30.1885C280.551 32.4124 280.871 34.3347 281.512 35.9554C282.153 37.5762 283.095 38.82 284.338 39.6869C285.582 40.5161 287.108 40.9307 288.917 40.9307C290.311 40.9307 291.63 40.6292 292.874 40.0261C294.117 39.4231 295.323 38.5561 296.491 37.4254L297.396 39.4607C296.529 40.5161 295.455 41.4584 294.174 42.2876C292.893 43.0792 291.498 43.7011 289.991 44.1534C288.521 44.6057 286.995 44.8318 285.412 44.8318Z" fill="#FDFDFD"/>
<path d="M49.3364 4.63216C49.3364 7.19044 47.2679 9.26433 44.7163 9.26433C42.1647 9.26433 40.0962 7.19044 40.0962 4.63216C40.0962 2.07389 42.1647 0 44.7163 0C47.2679 0 49.3364 2.07389 49.3364 4.63216Z" fill="#FDFDFD"/>
<path d="M35.4758 26.0559C35.4758 18.4268 29.3073 12.2421 21.698 12.2421C14.0887 12.2421 7.92019 18.4268 7.92019 26.0559C7.92019 33.6851 14.0887 39.8697 21.698 39.8697V47.8105C9.71453 47.8105 0 38.0707 0 26.0559C0 14.0412 9.71453 4.30128 21.698 4.30128C33.6815 4.30128 43.396 14.0412 43.396 26.0559C43.396 38.0707 33.6815 47.8105 21.698 47.8105V39.8697C29.3073 39.8697 35.4758 33.6851 35.4758 26.0559Z" fill="#FDFDFD"/>
</svg>
