<svg width="199" height="27" viewBox="0 0 199 27" fill="none" xmlns="http://www.w3.org/2000/svg">
<path d="M0 25.7848L1.98438 23.8316V4.95663L0 3.00351H5.6875L4.375 4.31601V24.4723L5.6875 25.7848H0ZM4.60938 4.95663C5.11979 4.36288 5.75521 3.88893 6.51562 3.53476C7.28646 3.18059 8.11979 3.00351 9.01562 3.00351C9.78646 3.00351 10.5052 3.13372 11.1719 3.39413C11.849 3.64413 12.4427 3.99309 12.9531 4.44101C13.4635 4.88893 13.8646 5.42018 14.1562 6.03476C14.4479 6.63893 14.5938 7.27955 14.5938 7.95663C14.5938 8.8733 14.3333 9.71184 13.8125 10.4723C13.3021 11.2327 12.6302 11.8264 11.7969 12.2535C12.8177 12.2952 13.7708 12.4983 14.6562 12.8629C15.5521 13.2171 16.3229 13.6962 16.9688 14.3004C17.625 14.8941 18.1406 15.5816 18.5156 16.3629C18.901 17.1441 19.0938 17.9827 19.0938 18.8785C19.0938 19.7952 18.8906 20.6598 18.4844 21.4723C18.0885 22.2743 17.5365 22.9775 16.8281 23.5816C16.1198 24.1754 15.2969 24.6493 14.3594 25.0035C13.4219 25.3577 12.4219 25.5348 11.3594 25.5348C10.0573 25.5348 8.85938 25.2848 7.76562 24.7848C6.68229 24.2743 5.78646 23.6025 5.07812 22.7691C5.69271 23.2587 6.39583 23.6546 7.1875 23.9566C7.97917 24.2587 8.83333 24.4098 9.75 24.4098C10.6667 24.4098 11.5365 24.2639 12.3594 23.9723C13.1823 23.6702 13.8906 23.2587 14.4844 22.7379C15.0885 22.2066 15.5625 21.5973 15.9062 20.9098C16.2604 20.2118 16.4375 19.4671 16.4375 18.6754C16.4375 17.8837 16.2604 17.1389 15.9062 16.441C15.5625 15.7327 15.0885 15.1181 14.4844 14.5973C13.8906 14.0764 13.1823 13.6702 12.3594 13.3785C11.5365 13.0764 10.6667 12.9254 9.75 12.9254C9.13542 12.9254 8.51042 13.0087 7.875 13.1754V12.5035C8.51042 12.4827 9.10938 12.3577 9.67188 12.1285C10.2448 11.8889 10.7344 11.5816 11.1406 11.2066C11.5573 10.8316 11.8802 10.3941 12.1094 9.89413C12.349 9.39413 12.4688 8.86809 12.4688 8.31601C12.4688 7.74309 12.3385 7.20143 12.0781 6.69101C11.8281 6.17018 11.4792 5.72226 11.0312 5.34726C10.5833 4.97226 10.0625 4.67538 9.46875 4.45663C8.875 4.22747 8.23438 4.11288 7.54688 4.11288C6.99479 4.11288 6.47396 4.19101 5.98438 4.34726C5.49479 4.49309 5.03646 4.69622 4.60938 4.95663Z" fill="#2F2C25"/>
<path d="M20.5469 25.7848L22.6562 23.6441L32.9375 1.87851L43.1719 23.6441L45.2812 25.7848H38.9531L40.3594 24.3785L36.3594 14.3941H29.4688L25.4688 24.3785L26.8906 25.7848H20.5469ZM30.0469 13.0191H35.8125L32.9375 5.81601L30.0469 13.0191Z" fill="#2F2C25"/>
<path d="M47.9375 25.7848L49.8906 23.8316V4.95663L47.9375 3.00351H54.2812L52.3281 4.95663V23.8316L54.2812 25.7848H47.9375Z" fill="#2F2C25"/>
<path d="M55.9688 3.00351H59.5469L74.2344 21.8785V4.98788L72.25 3.00351H78.625L76.6406 4.98788V23.8941L78.625 25.8785H74.9375L61.4375 8.92538V23.8941L63.4219 25.8785H57.0469L59 23.8941V6.12851L55.9688 3.00351Z" fill="#2F2C25"/>
<path d="M81.1875 14.4254C81.1875 12.8212 81.5156 11.316 82.1719 9.90976C82.8385 8.50351 83.7396 7.27434 84.875 6.22226C86.0208 5.15976 87.3594 4.32643 88.8906 3.72226C90.4323 3.10768 92.0781 2.80038 93.8281 2.80038C95.151 2.80038 96.4115 2.98268 97.6094 3.34726C98.8177 3.71184 99.9323 4.21705 100.953 4.86288H103L103.328 10.7691C102.943 9.9358 102.427 9.14413 101.781 8.39413C101.146 7.63372 100.417 6.96705 99.5938 6.39413C98.7812 5.82122 97.8802 5.36288 96.8906 5.01913C95.9115 4.67538 94.8906 4.50351 93.8281 4.50351C92.401 4.50351 91.0625 4.77434 89.8125 5.31601C88.5625 5.85768 87.4688 6.58684 86.5312 7.50351C85.5938 8.40976 84.849 9.45143 84.2969 10.6285C83.7552 11.7952 83.4844 13.0087 83.4844 14.2691C83.4844 15.5296 83.7552 16.7483 84.2969 17.9254C84.849 19.0921 85.5938 20.1285 86.5312 21.0348C87.4688 21.941 88.5573 22.665 89.7969 23.2066C91.0469 23.7483 92.3906 24.0191 93.8281 24.0191C94.7865 24.0191 95.7188 23.8785 96.625 23.5973C97.5312 23.3056 98.3854 22.9202 99.1875 22.441C99.9896 21.9618 100.719 21.4098 101.375 20.7848C102.042 20.1493 102.599 19.4879 103.047 18.8004L103 23.8316H101.25C100.188 24.54 99.0312 25.0868 97.7812 25.4723C96.5312 25.8473 95.2135 26.0348 93.8281 26.0348C92.0781 26.0348 90.4323 25.7327 88.8906 25.1285C87.3594 24.5243 86.0208 23.7014 84.875 22.6598C83.7396 21.6077 82.8385 20.3733 82.1719 18.9566C81.5156 17.54 81.1875 16.0296 81.1875 14.4254Z" fill="#2F2C25"/>
<path d="M105.609 25.7848L107.594 23.8316V4.95663L105.609 3.00351H111.312L110 4.31601V4.75351C110.615 4.11809 111.354 3.61288 112.219 3.23788C113.083 2.86288 114.026 2.67538 115.047 2.67538C115.964 2.67538 116.833 2.83684 117.656 3.15976C118.479 3.48268 119.193 3.92018 119.797 4.47226C120.411 5.02434 120.891 5.67538 121.234 6.42538C121.589 7.17538 121.766 7.97747 121.766 8.83163C121.766 9.6858 121.589 10.4879 121.234 11.2379C120.891 11.9775 120.411 12.6233 119.797 13.1754C119.193 13.7275 118.479 14.165 117.656 14.4879C116.833 14.8108 115.964 14.9723 115.047 14.9723C114.943 14.9723 114.839 14.9723 114.734 14.9723C114.63 14.9723 114.521 14.9618 114.406 14.941L114.438 14.9723L125.938 25.7848H121.969L110 12.8941V23.8316L111.984 25.7848H105.609ZM109.672 8.83163C109.672 9.42538 109.797 9.98268 110.047 10.5035C110.307 11.0243 110.661 11.4775 111.109 11.8629C111.568 12.2483 112.094 12.5556 112.688 12.7848C113.281 13.0035 113.922 13.1129 114.609 13.1129H114.672C115.328 13.1129 115.953 13.0035 116.547 12.7848C117.151 12.5556 117.672 12.2483 118.109 11.8629C118.547 11.4775 118.891 11.0243 119.141 10.5035C119.401 9.98268 119.531 9.42538 119.531 8.83163C119.531 8.23788 119.401 7.68059 119.141 7.15976C118.891 6.62851 118.547 6.17018 118.109 5.78476C117.672 5.39934 117.151 5.09726 116.547 4.87851C115.953 4.64934 115.328 4.53476 114.672 4.53476H114.609C113.922 4.53476 113.281 4.64934 112.688 4.87851C112.094 5.09726 111.568 5.39934 111.109 5.78476C110.661 6.17018 110.307 6.62851 110.047 7.15976C109.797 7.68059 109.672 8.23788 109.672 8.83163Z" fill="#2F2C25"/>
<path d="M125.984 14.4254C125.984 12.8212 126.312 11.316 126.969 9.90976C127.635 8.50351 128.542 7.27434 129.688 6.22226C130.833 5.15976 132.167 4.32643 133.688 3.72226C135.208 3.10768 136.844 2.80038 138.594 2.80038C140.344 2.80038 141.979 3.10768 143.5 3.72226C145.031 4.32643 146.365 5.15976 147.5 6.22226C148.646 7.27434 149.547 8.50351 150.203 9.90976C150.87 11.316 151.203 12.8212 151.203 14.4254C151.203 16.0296 150.87 17.54 150.203 18.9566C149.547 20.3733 148.646 21.6077 147.5 22.6598C146.365 23.7014 145.031 24.5243 143.5 25.1285C141.979 25.7327 140.344 26.0348 138.594 26.0348C136.844 26.0348 135.208 25.7327 133.688 25.1285C132.167 24.5243 130.833 23.7014 129.688 22.6598C128.542 21.6077 127.635 20.3733 126.969 18.9566C126.312 17.54 125.984 16.0296 125.984 14.4254ZM128.297 14.2691C128.297 15.5296 128.568 16.7483 129.109 17.9254C129.651 19.0921 130.385 20.1285 131.312 21.0348C132.25 21.941 133.339 22.665 134.578 23.2066C135.828 23.7483 137.167 24.0191 138.594 24.0191C140.021 24.0191 141.359 23.7483 142.609 23.2066C143.859 22.665 144.948 21.941 145.875 21.0348C146.802 20.1285 147.536 19.0921 148.078 17.9254C148.63 16.7483 148.906 15.5296 148.906 14.2691C148.906 13.0087 148.63 11.7952 148.078 10.6285C147.536 9.45143 146.802 8.40976 145.875 7.50351C144.948 6.58684 143.859 5.85768 142.609 5.31601C141.37 4.77434 140.031 4.50351 138.594 4.50351C137.167 4.50351 135.828 4.77434 134.578 5.31601C133.339 5.85768 132.25 6.58684 131.312 7.50351C130.385 8.40976 129.651 9.45143 129.109 10.6285C128.568 11.7952 128.297 13.0087 128.297 14.2691Z" fill="#2F2C25"/>
<path d="M154.094 25.7848L156.047 23.8316V4.95663L154.094 3.00351H167.828L168.156 6.94101L166.328 5.11288H158.484V12.9879H161.781L162.703 12.0504V15.316L161.781 14.3941H158.484V23.8316L160.438 25.7848H154.094Z" fill="#2F2C25"/>
<path d="M171.703 6.94101L172.031 3.00351H189.438L189.766 6.94101L187.938 5.11288H181.953V23.8316L183.906 25.7848H177.562L179.516 23.8316V5.11288H173.531L171.703 6.94101Z" fill="#2F2C25"/>
<path d="M198.578 2.81601C198.578 3.92058 197.683 4.81601 196.578 4.81601C195.474 4.81601 194.578 3.92058 194.578 2.81601C194.578 1.71144 195.474 0.81601 196.578 0.81601C197.683 0.81601 198.578 1.71144 198.578 2.81601Z" fill="#2F2C25"/>
</svg>
