<svg width="199" height="57" viewBox="0 0 199 57" fill="none" xmlns="http://www.w3.org/2000/svg">
<path d="M0.89457 55.8975C0.785193 55.4734 0.950169 54.8808 1.93105 52.0485C2.92449 49.3597 4.87458 45.2139 6.95916 41.7792C8.95946 38.2073 11.1498 34.3296 11.209 34.1799C11.2027 34.1082 10.7661 34.0741 10.264 34.118C9.25358 34.1341 8.79812 33.8849 8.8322 33.4482C8.93172 32.9336 9.34953 32.7525 10.9087 32.3993C11.6851 32.1868 12.3961 32.0523 12.3961 32.0523C12.3961 32.0523 12.5207 31.8246 12.6453 31.5969C12.8354 31.2911 14.1409 28.8641 15.6427 26.2031C17.5183 22.8589 18.7583 20.5099 19.5464 18.7786C20.1507 17.4248 20.7021 16.2924 20.6959 16.2207C20.6959 16.2207 19.5482 16.3211 18.1075 16.3749C16.6729 16.5004 15.3756 16.5416 15.2976 16.4762C15.0699 16.3515 15.8741 15.6307 16.5071 15.4308C16.7877 15.3339 17.9945 15.0838 19.1421 14.9834L21.3593 14.7172L21.6552 13.9685C22.1941 12.6927 22.8396 12.6362 22.8091 13.9398L22.8001 14.6634L31.2575 13.8512C38.7825 13.1206 39.6432 13.0452 39.7338 13.2542C39.8369 13.6065 39.4845 13.7096 36.4783 14.0449C34.9066 14.2547 33.4783 14.4519 33.3349 14.4645C32.8516 14.7236 28.7166 15.3744 25.6387 15.716L22.2738 16.0826L21.6166 17.6579C20.0718 21.4791 19.3958 22.8392 16.2801 28.5324C15.4077 30.1265 14.7254 31.4149 14.8034 31.4803C14.8034 31.4803 15.3772 31.4301 16.0165 31.3019C17.3604 30.9675 25.7649 30.3768 26.0644 30.4951C26.2141 30.5543 26.3047 30.7632 26.2455 30.9129C26.258 31.0564 26.1334 31.2841 25.9962 31.3684C25.8591 31.4527 24.3591 31.6562 22.5659 31.813C20.3487 32.0793 18.9922 32.2703 17.7917 32.5921C16.8718 32.8171 15.5995 33.1453 14.8168 33.286C14.1121 33.4922 13.4729 33.6204 13.4729 33.6204C13.4729 33.6204 12.7906 34.9088 11.9119 36.4312C11.105 37.9473 9.53144 40.6146 8.53443 42.4364C7.45942 44.1928 6.02308 46.7758 5.34705 48.1359C4.67101 49.496 3.674 51.3178 3.10377 52.235C2.04131 54.1348 1.73288 54.74 1.73018 55.5353C1.70238 56.0436 1.63066 56.0499 1.35003 56.1467C1.06312 56.1718 0.985122 56.1064 0.89457 55.8975Z" fill="#2F2C25"/>
<path d="M30.3872 41.175C28.9868 40.8639 28.3968 39.9036 28.552 38.3723C28.6578 37.9294 28.8165 37.265 28.9285 36.8938C29.4019 35.696 31.7797 32.3079 32.5714 31.4436C33.4222 30.4296 35.704 28.4231 36.8015 27.7489C37.4811 27.2558 37.69 27.1652 38.7659 27.0711C40.1941 26.8739 40.5653 26.9859 40.8432 27.6844C41.0306 28.1739 41.0369 28.2456 40.6226 29.2937C40.0838 30.5695 39.6319 31.1873 38.2072 32.2515C37.6585 32.5886 36.2993 33.5748 35.6852 33.9899C33.138 35.4414 32.505 35.6414 31.473 36.2376C31.2641 36.3281 31.1207 36.3407 30.8248 37.0893C30.6535 37.6102 30.4231 38.2809 30.4482 38.5678C30.4204 39.0761 30.4267 39.1479 30.7199 39.1945C31.4622 39.4186 33.1397 38.7659 35.9613 37.1459C40.3635 34.5925 41.5918 33.7623 44.1013 31.8804C46.5454 30.0765 48.4471 28.6814 49.3356 28.0978C49.8188 27.8387 50.19 27.9508 50.2339 28.4528C50.259 28.7397 50.1999 28.8895 48.9061 29.7977C46.9264 31.1273 42.6587 34.3917 40.0183 36.4295C35.4887 40.0059 32.2306 41.5919 30.3872 41.175ZM34.811 32.2595C35.3597 31.9224 36.242 31.267 36.7907 30.9299C38.2933 29.9312 39.1379 28.8454 38.4924 28.9019C38.062 28.9395 36.9709 29.6855 35.6305 30.8869C33.4141 32.8154 32.9748 33.5766 34.811 32.2595Z" fill="#2F2C25"/>
<path d="M47.6158 38.0776C46.7175 37.7226 46.4019 36.5938 46.7659 34.9719C46.965 33.9426 48.1422 30.8764 49.0612 28.9891C49.4225 28.1625 49.7247 27.4855 49.7184 27.4138C49.7121 27.3421 49.8959 26.9646 50.086 26.6589C50.2761 26.3532 50.84 25.3643 51.404 24.3753C53.077 21.1934 57.5456 14.4423 59.1227 12.642C61.0334 10.5234 62.0528 9.78372 62.7297 10.0859C63.2631 10.4006 63.4568 10.9618 63.342 12.1283C63.2586 13.6533 62.536 15.3066 60.8127 17.9147C59.2796 20.2171 58.1669 21.5431 56.7611 22.8225C55.1589 24.3359 53.1389 26.0304 52.1786 26.6204C51.5645 27.0355 51.4336 27.1915 50.7046 28.773C49.1159 32.0921 48.169 34.4878 48.0605 35.7259C47.8678 36.8269 48.5133 36.7705 51.2102 35.3781C55.148 33.299 57.6575 31.4171 60.9803 28.0909C62.1772 26.902 62.5233 26.7272 62.907 26.9827C63.2253 27.3162 63.1132 27.6874 62.2498 28.558C60.5947 30.2928 59.1171 31.5785 56.3458 33.7724C51.6728 37.3613 49.2503 38.5851 47.6158 38.0776ZM55.2575 22.1591C57.1341 20.4771 57.6639 19.9248 58.9478 18.0779C60.8863 15.4509 62.0545 13.1082 62.0976 11.948C62.1191 11.368 62.1191 11.368 61.773 11.5428C61.2243 11.8799 58.8215 14.9811 57.5438 16.8998C54.3 21.9537 52.9757 24.1656 53.3092 23.8473C53.4464 23.763 54.3224 23.0359 55.2575 22.1591Z" fill="#2F2C25"/>
<path d="M57.685 36.9076C57.1453 36.5212 57.0888 35.8756 57.5685 34.7495C57.8644 34.0009 58.1136 33.5455 59.983 30.1295C60.4286 29.4401 60.4878 29.2903 60.3255 29.0877C60.1633 28.8851 60.157 28.8134 60.3533 28.5794C60.4842 28.4234 60.6869 28.2611 60.902 28.2423C61.1109 28.1517 62.2299 26.8974 62.5509 26.4357C63.5201 25.1222 63.9531 24.2893 64.4552 24.2454C64.8856 24.2077 65.2819 24.6067 65.1698 24.9779C65.1357 25.4145 64.3628 26.494 63.7926 27.4112C63.1632 28.4781 62.2872 29.2052 60.2995 32.9206C59.4208 34.4429 58.8381 35.2167 58.9878 35.2759C58.9941 35.3476 59.6862 34.9979 60.4438 34.5703C64.7931 32.2383 67.1153 29.8669 70.5286 26.7496C71.2485 25.8915 71.4763 26.0162 71.6197 26.0036C71.9783 25.9722 72.3746 26.3712 72.3343 26.7361C72.2751 26.8859 72.0258 27.3413 71.6923 27.6596C71.4305 27.9716 70.4828 28.705 70.0901 29.173C68.8995 30.4336 65.5391 33.3295 64.3888 34.2251C63.5782 34.8742 61.3117 36.2289 60.2734 36.7534C59.8556 36.9345 59.2164 37.0627 58.8578 37.0941C58.2122 37.1506 58.0625 37.0914 57.685 36.9076ZM65.7418 21.6032C65.5078 21.4068 65.5015 21.3351 65.7508 20.8796C66.0001 20.4242 66.2744 20.2556 67.1755 19.8154C67.7242 19.4783 68.2729 19.1412 68.2729 19.1412C68.3975 18.9135 68.8341 18.9476 68.8467 19.091C68.8718 19.3779 68.3204 20.5103 68.0586 20.8223C67.8031 21.206 66.7648 21.7305 66.2627 21.7744C66.1193 21.787 65.8978 21.7341 65.7418 21.6032Z" fill="#2F2C25"/>
<path d="M49.8803 48.504C49.8023 48.4385 49.7181 48.3013 49.7055 48.1579C49.6804 47.871 49.9548 47.7024 51.392 46.7817C54.1292 45.0244 56.9911 43.0394 58.2069 42.0658C58.8148 41.5789 59.9714 40.755 60.7164 40.1839C61.3898 39.619 63.4223 38.068 65.1868 36.7572L68.3948 34.5974L70.1073 29.3883C71.1348 26.2629 71.3186 25.8854 71.7238 25.5609C72.2071 25.3018 72.3505 25.2892 72.728 25.473C73.0337 25.6631 73.0337 25.6631 72.7782 26.0468C72.5227 26.4305 70.0526 32.0673 70.4336 33.1181C70.4399 33.1898 73.1395 31.0022 74.9694 29.6134C77.4072 27.7378 79.9445 25.3476 80.4843 25.734C81.024 26.1204 80.6286 27.3837 80.1642 27.858C79.6997 28.3323 70.8926 34.2343 69.7647 36.2121C69.8086 36.7142 69.953 38.3639 69.9592 38.4357C70.5052 38.8938 75.9457 35.8159 81.5852 31.7088C83.1533 30.632 84.4283 29.5086 85.6844 28.1701C88.1374 25.6426 89.4061 24.4475 89.771 24.4879C89.9862 24.469 90.0642 24.5345 90.161 24.8151C90.1861 25.102 90.0552 25.258 89.2572 26.0506C88.7211 26.5311 87.6613 27.6357 86.9288 28.3503C80.9629 34.5097 74.0359 39.5968 70.9831 40.2252C69.2742 40.5193 68.3445 39.8056 68.1751 37.869C68.1374 37.4386 68.1123 37.1517 68.1123 37.1517C68.0406 37.158 67.0149 37.826 65.7866 38.6562C64.4865 39.4927 62.1608 40.9971 60.5864 42.0021C59.012 43.0072 56.9606 44.343 56.0721 44.9267C53.0668 46.9242 50.4012 48.6752 50.1861 48.694C50.1143 48.7003 49.9646 48.6411 49.8803 48.504Z" fill="#2F2C25"/>
<path d="M105.892 48.3015C105.807 48.1643 105.723 48.0271 105.788 47.9491C105.804 47.2973 109.234 41.0707 111.83 36.8684C113.35 34.4226 116.806 28.4828 116.734 28.4891C116.285 28.3116 115.524 27.8723 115.212 27.6104C114.12 26.6941 114.528 25.5743 116.093 25.2928C116.661 25.1709 117.097 25.205 118.42 25.4506C118.641 25.5035 119.021 24.8921 122.122 19.8507C122.561 19.0895 123.446 17.6388 124.016 16.7217C124.652 15.7265 125.406 14.4318 125.721 13.8984C127.098 11.4651 129.273 8.23922 130.464 6.97865C130.863 6.58237 131.221 6.55099 131.461 6.81907C131.624 7.0217 131.63 7.09342 131.499 7.24943C131.44 7.39915 131.303 7.48343 131.225 7.41798C131.147 7.35253 129.857 9.12773 129.233 10.2664C128.912 10.7281 128.86 10.9496 128.99 10.7936C131.524 7.53633 134.096 4.70946 136.854 2.37212C138.731 0.69017 139.691 0.100233 140.695 0.0123795C141.915 -0.0942988 142.688 0.488483 143.017 1.76073C143.401 3.6785 142.677 7.78929 141.269 11.5262C140.453 13.7658 138.958 16.4986 137.418 18.7292C134.589 22.7351 130.751 25.9618 126.841 27.5326L125.516 28.0822L127.247 28.8703C129.727 29.9543 131.549 30.9513 133.82 32.1258C137.607 34.1073 142.411 36.1443 146.188 37.1871C150.714 38.5257 152.922 38.983 154.734 39.0413C155.021 39.0162 155.099 39.0817 155.046 39.3031C155.065 39.5183 154.993 39.5246 154.204 39.5936C153.774 39.6313 152.973 39.5568 152.536 39.5228C151.507 39.3237 147.293 38.2469 144.695 37.4623C143.659 37.1916 141.803 36.6312 140.546 36.3075C136.32 35.0872 135.2 34.6793 132.551 33.3209C131.191 32.6449 128.477 31.3646 126.447 30.4581L122.906 28.8164L121.256 28.9608C120.389 28.9643 119.379 28.9805 119.092 29.0056L118.44 28.9903L117.64 30.5781C116.085 33.4606 111.358 41.3908 109.563 44.0051C109.242 44.4669 108.541 45.5401 108.102 46.3013C107.597 47.1404 107.086 47.9079 106.961 48.1356C106.556 48.4602 106.132 48.5696 105.892 48.3015ZM120.829 28.2031C120.822 28.1314 120.517 27.9413 120.068 27.7638C119.397 27.5334 119.253 27.5459 119.194 27.6957C118.867 28.0857 119.017 28.1448 119.675 28.2318C120.105 28.1942 120.47 28.2345 120.47 28.2345C120.692 28.2874 120.835 28.2749 120.829 28.2031ZM126.217 27.009C128.724 25.9223 130.841 24.5085 133.169 22.2088C134.896 20.4677 136.252 18.6145 137.641 16.3246C139.891 12.2972 141.056 9.08751 141.518 5.28873C141.826 3.0213 141.738 2.01713 141.264 1.5527C140.543 0.748465 138.766 1.91578 135.044 5.63832C133.246 7.38572 131.93 8.87402 130.568 10.6555C129.2 12.3653 125.782 17.0731 124.17 19.3101C122.821 21.235 120.042 25.8147 120.204 26.0173C120.204 26.0173 121.18 26.4378 122.228 26.852C124.468 27.6679 124.468 27.6679 126.217 27.009ZM117.494 27.2662C117.678 26.8887 117.678 26.8887 116.87 26.7426C115.691 26.4844 115.632 26.6341 116.556 27.276C117.095 27.6625 117.245 27.7216 117.494 27.2662Z" fill="#2F2C25"/>
<path d="M145.701 31.6645C144.51 31.2629 143.819 29.155 146.05 24.9124C146.679 23.8455 148.141 21.5494 148.768 21.2778C150.201 19.49 152.1 18.8902 152.147 18.597C152.234 17.939 152.726 16.9563 153.184 16.4103C154.048 15.5398 154.98 15.4582 155.688 16.119C156.397 16.7797 156.569 17.9211 156.049 19.4121C155.943 19.855 155.902 20.2199 155.902 20.2199C156.058 20.3508 158.584 19.4793 160.118 18.8392C161.992 17.9525 162.279 17.9274 162.675 18.3264C162.916 18.5945 162.922 18.6662 162.875 18.9594C162.691 19.3368 162.62 19.3431 160.883 20.1455C159.355 20.8574 157.671 21.4384 156.393 21.6948C155.897 21.8104 155.33 21.9323 155.192 22.0166C155.049 22.0292 154.793 22.4129 154.61 22.7904C153.198 25.6603 149.664 29.8723 147.547 31.2862C146.79 31.7139 146.222 31.8358 145.701 31.6645ZM148.621 27.8676C149.955 26.5945 151.782 24.3387 152.536 23.0441C152.91 22.3609 153.212 21.684 153.212 21.684C153.206 21.6122 153.115 21.4033 152.881 21.207L152.569 20.9452C150.208 21.224 144.768 30.0839 147.68 28.6727C147.752 28.6664 148.157 28.3419 148.621 27.8676ZM154.657 18.3774C154.816 17.7131 154.778 17.2827 154.563 17.3015C154.348 17.3204 153.765 18.0941 153.778 18.2375C153.684 18.8239 154.308 19.3475 154.486 18.8983C154.558 18.892 154.611 18.6706 154.657 18.3774Z" fill="#2F2C25"/>
<path d="M162.43 32.5137C161.728 31.9247 161.622 30.7053 162.123 28.9992C162.241 28.6997 162.282 28.3348 162.282 28.3348C162.282 28.3348 161.739 28.7436 161.125 29.1587C159.563 30.3072 158.787 30.5197 158.156 29.9244C157.448 29.2636 157.541 28.6772 158.578 24.8283C159.07 23.8456 159.799 22.2641 160.154 21.3657C161.185 19.1072 162.22 17.7158 163.009 17.6467C163.152 17.6342 163.452 17.7525 163.686 17.9489C163.991 18.139 164.076 18.2761 164.12 18.7782C164.176 19.4238 163.886 20.2441 163.606 20.341C163.462 20.3535 163.306 20.2226 163.144 20.02L162.826 19.6864L162.505 20.1482C162.38 20.3759 161.823 21.4366 161.408 22.4846C160.922 23.539 160.324 24.9646 159.95 25.6477C159.774 27.7592 159.531 28.2864 159.537 28.3581C159.615 28.4235 162.81 24.458 163.542 23.7435C163.673 23.5875 163.988 23.054 164.302 22.5205C164.795 21.5379 166.038 20.0559 166.515 19.725C166.861 19.5502 167.513 19.5655 167.897 19.821C168.118 19.8739 168.209 20.0828 168.234 20.3697C168.265 20.7283 168.075 21.0341 166.564 22.7564C165.647 23.8484 164.809 25.0058 164.684 25.2336C164.075 28.1779 163.284 30.7045 163.44 30.8354C163.668 30.96 165.151 29.746 166.277 28.5635C167.991 26.6789 169.353 24.8974 170.808 22.5296C171.942 20.6235 172.132 20.3177 172.213 19.5879C172.368 18.0566 173.203 16.0321 173.87 15.3956C174.543 14.8307 175.37 15.1921 175.458 16.1962C175.52 16.9135 175.269 18.1642 174.842 19.0688C174.592 19.5243 174.611 19.7395 174.683 19.7332C174.826 19.7207 175.525 19.4427 176.361 19.0805C177.196 18.7183 178.521 18.1687 179.291 17.8845C180.127 17.5223 181.387 17.0507 182.013 16.7791C183.332 16.1578 183.691 16.1264 183.8 16.5505C183.838 16.9808 183.766 16.9871 181.749 17.8863C181.129 18.2297 180.025 18.8322 179.267 19.2599C178.588 19.753 177.418 20.4335 176.726 20.7831C175.616 21.3139 175.336 21.4107 174.481 21.5577L173.405 21.6519L172.402 23.402C170.888 25.9195 170.37 26.6153 168.669 28.6433C166.967 30.6713 166.3 31.3079 164.994 32.0727C163.831 32.8249 162.905 32.9782 162.43 32.5137Z" fill="#2F2C25"/>
<path d="M178.532 28.214C177.132 27.9029 176.542 26.9426 176.697 25.4113C176.803 24.9684 176.962 24.304 177.074 23.9328C177.547 22.735 179.925 19.3469 180.716 18.4826C181.567 17.4686 183.849 15.4621 184.947 14.7879C185.626 14.2948 185.835 14.2042 186.911 14.1101C188.339 13.9128 188.71 14.0249 188.988 14.7234C189.176 15.2129 189.182 15.2846 188.768 16.3327C188.229 17.6085 187.777 18.2263 186.352 19.2905C185.804 19.6276 184.444 20.6138 183.83 21.0289C181.283 22.4804 180.65 22.6804 179.618 23.2766C179.409 23.3671 179.266 23.3797 178.97 24.1283C178.799 24.6492 178.568 25.3199 178.593 25.6068C178.565 26.1151 178.572 26.1868 178.865 26.2335C179.607 26.4576 181.285 25.8049 184.106 24.1849C188.509 21.6315 189.737 20.8012 192.246 18.9194C194.69 17.1155 196.592 15.7204 197.481 15.1368C197.964 14.8777 198.335 14.9897 198.379 15.4918C198.404 15.7787 198.345 15.9285 197.051 16.8367C195.071 18.1663 190.804 21.4307 188.163 23.4685C183.634 27.0449 180.376 28.6309 178.532 28.214ZM182.956 19.2985C183.505 18.9614 184.387 18.306 184.936 17.9689C186.438 16.9701 187.283 15.8844 186.637 15.9409C186.207 15.9785 185.116 16.7245 183.776 17.9259C181.559 19.8544 181.12 20.6156 182.956 19.2985Z" fill="#2F2C25"/>
</svg>
