<svg width="162" height="33" viewBox="0 0 162 33" fill="none" xmlns="http://www.w3.org/2000/svg">
<path fill-rule="evenodd" clip-rule="evenodd" d="M27.8544 15.9961C24.4294 13.9992 21.2451 12.1401 17.8105 10.14C17.8105 11.5385 17.7504 12.7128 17.8549 13.8776C17.8803 14.1784 18.3808 14.5016 18.7293 14.7032C21.4605 16.2905 24.1885 17.8777 26.9514 19.4041C27.6453 19.7913 27.9716 20.2554 27.8575 21.0331C27.8512 21.0779 27.848 21.1225 27.8575 21.1641C28.4817 23.7306 26.9736 24.9338 24.93 25.737C24.6068 25.865 24.0903 25.8075 23.783 25.6283C19.6071 23.2219 15.4375 20.7994 11.2996 18.3225C10.9447 18.1145 10.6183 17.5193 10.6152 17.1033C10.5708 12.2008 10.5676 7.29831 10.6152 2.39582C10.6183 1.94781 10.9954 1.38785 11.3598 1.08704C13.0137 -0.285787 14.5725 -0.305025 16.483 0.9686C19.813 3.19584 23.3457 5.11905 26.8341 7.09669C27.6262 7.5479 27.8829 8.0599 27.8671 8.93032C27.8164 11.196 27.8512 13.4617 27.8512 15.993L27.8544 15.9961Z" fill="#2F2C25"/>
<path fill-rule="evenodd" clip-rule="evenodd" d="M7.03497 15.7818C7.03497 16.9946 7.09191 17.9258 7.01904 18.8474C6.9525 19.7051 7.30742 20.1531 8.03298 20.5595C12.0188 22.7867 15.9761 25.0683 19.9366 27.3371C20.2154 27.4971 20.472 27.702 20.9155 28.0092C18.628 29.398 16.5021 30.7132 14.338 31.9708C14.0941 32.1116 13.5872 31.9996 13.2989 31.83C9.09126 29.3852 4.89309 26.9276 0.726659 24.4188C0.378136 24.2108 0.093031 23.6252 0.0645155 23.1996C-0.119251 19.8459 -0.100352 19.8395 2.80189 18.1595C4.11994 17.401 5.4507 16.6682 7.03172 15.7818H7.03497Z" fill="#2F2C25"/>
<path fill-rule="evenodd" clip-rule="evenodd" d="M7.00952 3.61199C7.00952 6.46004 7.0221 8.98158 6.99359 11.5032C6.99359 11.7144 6.81619 12.0185 6.6356 12.1209C4.54129 13.3241 2.43114 14.4921 0.0611895 15.8233C0.0611895 12.9977 0.0548713 10.4505 0.0802184 7.90004C0.0802184 7.73043 0.257592 7.49361 0.41918 7.40081C2.51032 6.18159 4.61105 4.98801 7.00952 3.61199Z" fill="#2F2C25"/>
<path d="M38.8076 26.0347V2.70673H45.2716V26.0347H38.8076Z" fill="#2F2C25"/>
<path d="M48.5814 26.0347V8.75473H54.5974L54.8214 11.5067H55.1094C56.1974 9.55473 58.6934 8.43473 61.1894 8.43473C65.6374 8.43473 68.6774 10.4507 68.6774 16.5307V26.0347H62.4374V17.6507C62.4374 14.8667 61.6374 13.1067 58.9814 13.1067C56.4214 13.1067 54.8214 14.9307 54.8214 17.4267V26.0347H48.5814Z" fill="#2F2C25"/>
<path d="M81.2499 26.3547C74.8179 26.3547 70.7219 23.0587 70.7219 17.4907C70.7219 11.7627 74.9459 8.43473 81.1859 8.43473C87.9059 8.43473 91.8099 12.2427 91.3299 18.7387H76.9299C76.9939 20.9147 78.6579 22.1947 81.4099 22.1947C83.4579 22.1947 85.0579 21.4907 85.5059 20.4347H91.3619C90.9139 23.9867 86.7539 26.3547 81.2499 26.3547ZM81.1539 12.5947C78.8179 12.5947 77.2499 13.5867 76.8659 15.4427H85.1859C84.9939 13.7147 83.6819 12.5947 81.1539 12.5947Z" fill="#2F2C25"/>
<path d="M93.6439 26.0347V8.75473H99.3079L99.5319 11.3787H99.7559C100.46 9.61873 102.092 8.49873 104.3 8.49873C104.844 8.49873 105.292 8.49873 105.708 8.56273V14.1627C105.164 14.0667 104.62 14.0027 104.14 14.0027C101.42 14.0027 99.9159 15.2187 99.8839 18.4187V26.0347H93.6439Z" fill="#2F2C25"/>
<path d="M115.313 26.0347C112.305 26.0347 110.353 24.5947 110.353 21.5227V13.4267H107.249V8.75473H110.353V4.56273L116.465 3.41073V8.75473H120.657V13.4267H116.465V19.4747C116.465 20.4667 116.913 20.7547 117.905 20.7547H120.657V26.0347H115.313Z" fill="#2F2C25"/>
<path d="M122.769 6.77073V2.70673H129.009V6.77073H122.769ZM122.769 26.0347V8.75473H129.009V26.0347H122.769Z" fill="#2F2C25"/>
<path d="M139.732 26.3547C134.708 26.3547 131.316 22.8667 131.316 17.4267C131.316 11.9227 134.708 8.49873 139.732 8.49873C142.932 8.49873 144.948 9.61873 145.94 11.2507H146.196L146.356 8.75473H152.276V26.0347H146.068V23.5387H145.812C144.724 25.2987 142.42 26.3547 139.732 26.3547ZM141.716 21.6827C144.436 21.6827 146.036 19.9867 146.036 17.6827V17.1067C146.036 14.8347 144.436 13.1707 141.716 13.1707C139.252 13.1707 137.556 14.6427 137.556 17.4267C137.556 20.1467 139.22 21.6827 141.716 21.6827Z" fill="#2F2C25"/>
<path d="M155.238 26.0347V2.70673H161.478V26.0347H155.238Z" fill="#2F2C25"/>
</svg>
