<svg width="48" height="48" viewBox="0 0 48 48" fill="none" xmlns="http://www.w3.org/2000/svg">
<path d="M24 1C17.93 1 13 5.93 13 12V19.7695C14.77 18.3995 16.8 17.3509 19 16.7109V12C19 9.24 21.24 7 24 7C26.76 7 29 9.24 29 12V16.7109C31.2 17.3509 33.23 18.3995 35 19.7695V12C35 5.93 30.07 1 24 1ZM24 19C15.716 19 9 25.716 9 34V46H39V34C39 25.716 32.284 19 24 19ZM24.0078 27C26.2138 27.0036 28 28.7933 28 31C28 32.477 27.191 33.7523 26 34.4453V37.5C26 38.881 24.881 40 23.5 40H22V34.4453C20.547 33.5993 19.661 31.8851 20.123 29.9961C20.468 28.5821 21.6211 27.4413 23.0391 27.1113C23.3673 27.035 23.6927 26.9995 24.0078 27Z" fill="#2F2C25"/>
</svg>
