<svg width="48" height="48" viewBox="0 0 48 48" fill="none" xmlns="http://www.w3.org/2000/svg">
<path d="M16 3C14.895 3 14 3.895 14 5V6V8C14 9.105 13.105 10 12 10H11V6C8.239 6 6 8.239 6 11V42H37C39.761 42 42 39.761 42 37V6H38V3H36C34.895 3 34 3.895 34 5V6V8C34 9.105 33.105 10 32 10H31V6H18V3H16ZM19.5 19H22V23H18V20.5C18 19.672 18.672 19 19.5 19ZM26 19H30V23H26V19ZM34 19H38V23H34V19ZM10 26H14V30H10V26ZM18 26H22V30H18V26ZM26 26H38V34C38 35.657 36.657 37 35 37H26V26ZM10 33H14V37H10V33ZM18 33H22V37H18V33Z" fill="#2F2C25"/>
</svg>
