<svg width="12" height="12" viewBox="0 0 12 12" fill="none" xmlns="http://www.w3.org/2000/svg">
<path d="M5.42935 0.424477C5.60278 -0.141492 6.39721 -0.141492 6.57065 0.424477L7.56189 3.65921C7.63922 3.91158 7.8706 4.08369 8.13254 4.08369H11.4016C11.9729 4.08369 12.2181 4.81487 11.7641 5.16461L9.06873 7.24106C8.86982 7.39429 8.78676 7.65634 8.86066 7.89751L9.87791 11.2171C10.0496 11.7774 9.40679 12.2296 8.94468 11.8736L6.36258 9.88442C6.14852 9.71951 5.85148 9.71951 5.63742 9.88442L3.05531 11.8736C2.59321 12.2296 1.9504 11.7774 2.12208 11.2171L3.13934 7.89751C3.21324 7.65634 3.13018 7.39429 2.93127 7.24106L0.235857 5.16461C-0.218138 4.81487 0.0271261 4.08369 0.598438 4.08369H3.86746C4.1294 4.08369 4.36077 3.91158 4.43811 3.65921L5.42935 0.424477Z" fill="#2F2C25"/>
</svg>
