<svg width="48" height="48" viewBox="0 0 48 48" fill="none" xmlns="http://www.w3.org/2000/svg">
<path d="M43.32 7.67999C42.56 6.92999 41.64 6.27999 40.56 5.77999C39.46 5.27999 38.25 5.04999 37.04 5.04999H36.94C34.53 5.04999 32.27 5.99199 30.56 7.69199L10.812 27.441C8.58601 29.667 8.46001 33.438 10.76 35.586C11.819 36.575 13.176 37.07 14.532 37.07C15.949 37.07 17.366 36.531 18.444 35.453L32.952 20.945L32.245 20.238C31.073 19.066 29.174 19.066 28.002 20.238L15.688 32.551C15.13 33.109 14.223 33.24 13.6 32.756C13.217 32.458 13.002 32.016 13.002 31.542C13.002 31.133 13.161 30.748 13.45 30.459L33.389 10.521C34.349 9.56099 35.65 9.06999 37 9.04999C38.32 9.05999 39.55 9.57999 40.49 10.51C40.52 10.54 40.55 10.57 40.58 10.6C42.45 12.56 42.42 15.71 40.5 17.63L20.68 37.45C19.05 39.08 16.93 39.95 14.59 39.95C12.23 39.93 10.04 38.97 8.42001 37.25C5.25001 33.86 5.53002 28.49 8.81002 25.2L22.51 11.5L21.81 10.8C20.63 9.62999 18.73 9.62999 17.56 10.8L5.79001 22.57C0.0400145 28.31 1.08001 38.46 8.98001 42.62C10.72 43.53 12.68 43.95 14.65 43.95C17.97 43.95 21.16 42.63 23.51 40.28L43.33 20.46C46.82 16.97 46.83 11.19 43.32 7.67999Z" fill="#2F2C25"/>
</svg>
