<svg width="97" height="96" viewBox="0 0 97 96" fill="none" xmlns="http://www.w3.org/2000/svg">
<rect x="0.382812" width="96" height="96" rx="48" fill="#246AEB"/>
<path fill-rule="evenodd" clip-rule="evenodd" d="M66.7713 46.0081C66.9304 47.4205 66.9192 48.8693 66.7379 50.2455H66.7269C66.5049 52.0202 66.0276 53.6861 65.332 55.2434C62.4868 61.5814 56.012 66 48.4754 66C47.025 66 45.6154 65.8549 44.265 65.5289L44.228 65.5653C43.6471 65.8913 42.8959 65.6739 42.5592 65.1306C42.2928 64.6598 42.3669 64.0802 42.711 63.718C42.822 63.6094 43.2216 63.3924 43.3807 63.2837H43.3845L43.6211 63.1387L43.9134 62.9937C45.3749 63.3921 46.9104 63.6095 48.4754 63.6095C54.7948 63.6095 60.5628 59.9154 63.0935 54.2655C63.6781 52.9617 64.0741 51.5855 64.2739 50.173L62.0688 51.4406L61.3695 51.8028C60.5666 54.4467 58.9349 56.7645 56.715 58.4305C54.3508 60.2413 51.4649 61.1828 48.4754 61.1828C46.8253 61.1828 45.2121 60.8932 43.7026 60.3499L39.0852 62.9576C38.5006 63.2836 37.7531 63.0662 37.4164 62.5229C37.0797 61.9435 37.2832 61.2191 37.8641 60.8932L41.1089 59.0462L42.8886 58.0322L43.5472 57.6701C45.0309 58.3944 46.7032 58.7926 48.4754 58.7926C51.0172 58.7926 53.3555 57.9596 55.2203 56.5471C57.2515 54.9898 58.7204 52.7807 59.2643 50.2455L60.8589 49.3401L66.7565 46.0081H66.7675H66.7713ZM30.8159 42.821H30.8492H30.8566C31.0675 42.1329 31.3229 41.4446 31.6152 40.7926C34.4604 34.4184 40.9388 30 48.4718 30C53.9661 30 58.8942 32.354 62.2648 36.0844C63.8706 37.8591 65.1211 39.9599 65.9128 42.2778L59.3085 46.0081L49.0414 51.8028L49.0045 51.8389L44.6866 54.2655L41.2791 56.1849L39.1184 57.4165L35.5036 59.4445C34.9228 59.7704 34.1718 59.5893 33.8351 59.0098C33.5021 58.4303 33.7019 57.706 34.2827 57.38L37.6311 55.497L47.8243 49.7384L48.8786 49.1226L62.853 41.2273C62.2204 39.9597 61.4065 38.7646 60.4371 37.6781C57.3958 34.3099 53.067 32.3902 48.4718 32.3902C42.9812 32.3902 37.9049 35.1789 35.0079 39.6336C34.0459 41.1185 33.3539 42.7123 32.947 44.3783L32.207 44.813C32.0516 44.8854 31.8333 44.9939 31.6668 45.0301C31.1673 45.1388 30.6309 44.9216 30.3645 44.4508C30.0278 43.9075 30.2276 43.1832 30.8085 42.821H30.8159ZM30.494 48.5433L35.1817 45.8995C35.3445 44.8854 35.6257 43.9075 36.0216 43.0021V42.9657C36.9132 40.8651 38.3636 38.982 40.2358 37.5695C42.5963 35.7949 45.4822 34.8168 48.4754 34.8168C51.4353 34.8168 54.2842 35.7586 56.6225 37.497C57.5068 38.1489 58.8609 39.5975 59.3678 40.503L47.6836 47.0946L47.6651 47.0581L46.8697 47.5292C46.7994 47.5655 46.7179 47.6379 46.6291 47.7103L33.0691 55.352C32.4882 55.678 31.7371 55.4968 31.4041 54.9173C31.0675 54.3379 31.2673 53.6135 31.8482 53.2876C33.5168 52.3459 31.5338 53.4688 33.2024 52.5271L34.4751 51.8028L35.4259 51.2595L37.6423 50.028L45.4046 45.6095L46.4627 45.0301L47.9426 44.1972L55.6679 39.8147C53.7366 38.1849 51.2244 37.2074 48.4754 37.2074C45.9336 37.2074 43.5953 38.0401 41.7305 39.4525C40.3209 40.5391 39.1813 41.9156 38.4339 43.5454C38.1194 44.2335 37.8716 44.9576 37.7051 45.682C37.6977 45.7182 37.6903 45.7543 37.6829 45.7905C37.5719 46.2976 37.498 46.8049 37.4647 47.3482L36.8356 47.7103L35.0263 48.7243L31.7113 50.6077C31.1304 50.9337 30.3793 50.7525 30.0463 50.173C29.7096 49.5936 29.9094 48.8692 30.494 48.5433Z" fill="white"/>
</svg>
