<svg width="97" height="96" viewBox="0 0 97 96" fill="none" xmlns="http://www.w3.org/2000/svg">
<rect x="0.382812" width="96" height="96" rx="48" fill="#24403D"/>
<path d="M46.9572 58.2959H58.6931L55.1005 54.7317H32.3881V56.4959H46.9572V58.2959ZM43.674 52.6441H57.7175C59.5247 51.8881 61.1087 50.6281 62.2787 49.0441H32.3916V50.8441H43.674V52.6441ZM51.3852 46.9559H63.4775C63.9671 45.8399 64.2733 44.6159 64.3525 43.3559H32.3916V45.1559H51.3887V46.9559H51.3852ZM51.3852 41.2683H64.277C64.1006 40.0083 63.6935 38.7841 63.1031 37.7041H32.3916V39.5041H51.3887V41.2683H51.3852ZM43.674 35.6159H61.6561C59.7589 33.4559 57.041 32.0879 54.107 32.0159H45.9672H32.3916V33.8159H43.674V35.6159ZM60.774 60.3841H32.3881V62.1841H51.3852V63.9841H64.3705L60.774 60.3841ZM30.3828 30H66.3828V66H30.3828V30Z" fill="#A3CFCA"/>
</svg>
