<svg width="4093" height="658" viewBox="0 0 4093 658" fill="none" xmlns="http://www.w3.org/2000/svg">
<path d="M1185.61 617C1139.45 617 1098.74 606.625 1063.47 585.876C1028.72 565.126 1001.49 536.595 981.784 500.283C962.595 463.971 953 422.732 953 376.564C953 336.621 959.742 299.79 973.227 266.072C986.711 232.354 1005.38 203.045 1029.24 178.145C1053.62 152.727 1081.88 133.015 1114.04 119.009C1146.71 105.003 1181.46 98 1218.28 98C1264.44 98 1304.89 108.375 1339.64 129.124C1374.91 149.874 1402.14 178.405 1421.33 214.717C1441.04 250.51 1450.89 291.75 1450.89 338.436C1450.89 377.342 1444.41 413.654 1431.44 447.372C1418.48 481.09 1399.8 510.658 1375.43 536.076C1351.57 561.495 1323.56 581.466 1291.41 595.991C1259.25 609.997 1223.99 617 1185.61 617ZM1207.39 560.198C1234.88 560.198 1258.74 552.157 1278.96 536.076C1299.19 519.995 1314.75 497.43 1325.64 468.381C1337.05 438.813 1342.75 405.094 1342.75 367.226C1342.75 301.865 1329.53 250.25 1303.08 212.382C1277.15 173.996 1241.62 154.802 1196.5 154.802C1170.57 154.802 1147.23 162.843 1126.48 178.924C1105.74 194.486 1089.4 216.792 1077.47 245.841C1066.06 274.372 1060.36 308.349 1060.36 347.774C1060.36 413.135 1073.58 465.009 1100.03 503.396C1126.48 541.264 1162.27 560.198 1207.39 560.198Z" fill="#2D2C28"/>
<path d="M1639.78 617C1610.73 617 1588.43 607.403 1572.87 588.21C1557.31 568.498 1549.53 538.151 1549.53 497.171V307.312L1564.31 318.984L1513.75 308.09C1510.12 307.052 1507.01 303.421 1504.41 297.196C1502.34 290.453 1501.3 281.115 1501.3 269.184C1525.68 266.072 1544.87 263.738 1558.87 262.181C1572.87 260.106 1584.28 259.069 1593.1 259.069C1611.77 259.069 1625.51 262.96 1634.33 270.741C1643.67 278.522 1648.33 290.712 1648.33 307.312V486.277C1648.33 508.583 1652.74 525.183 1661.56 536.076C1670.38 546.451 1683.6 551.639 1701.23 551.639C1714.2 551.639 1726.13 549.304 1737.02 544.636C1748.43 539.448 1758.28 533.223 1766.58 525.961C1774.88 518.18 1781.62 510.918 1786.81 504.174L1776.7 523.627V307.312L1791.48 318.984L1740.13 308.09C1736.5 307.052 1733.65 303.421 1731.57 297.196C1729.5 290.453 1728.46 281.115 1728.46 269.184C1752.84 266.072 1772.03 263.738 1786.03 262.181C1800.03 260.106 1811.19 259.069 1819.48 259.069C1838.67 259.069 1852.68 262.96 1861.49 270.741C1870.31 278.522 1874.72 290.712 1874.72 307.312V534.52C1874.72 543.858 1876.53 550.861 1880.16 555.529C1884.31 559.679 1890.02 561.754 1897.28 561.754C1902.47 561.754 1907.91 560.717 1913.62 558.642C1919.32 556.567 1924.25 553.973 1928.4 550.861L1936.95 581.207C1925.54 592.1 1911.54 600.919 1894.94 607.663C1878.87 613.888 1863.31 617 1848.27 617C1828.56 617 1812.74 611.294 1800.81 599.882C1788.88 587.95 1782.92 571.87 1782.92 551.639H1777.47C1734.43 595.213 1688.53 617 1639.78 617Z" fill="#2D2C28"/>
<path d="M2109.36 617C2079.28 617 2056.98 607.403 2042.45 588.21C2028.45 569.016 2021.45 541.783 2021.45 506.508V198.376C2028.71 193.189 2037.79 188.261 2048.68 183.592C2059.57 178.924 2071.24 175.033 2083.69 171.921C2096.13 168.289 2108.06 165.955 2119.47 164.918V492.502C2119.47 512.214 2122.58 526.998 2128.81 536.855C2135.55 546.192 2146.7 550.861 2162.26 550.861C2172.11 550.861 2182.74 549.045 2194.15 545.414C2205.56 541.264 2216.97 535.039 2228.38 526.739L2243.17 554.751C2236.42 564.607 2226.05 574.463 2212.05 584.319C2198.04 593.657 2182.23 601.438 2164.59 607.663C2146.96 613.888 2128.55 617 2109.36 617ZM2203.49 315.871L1970.88 309.646C1970.88 299.79 1971.92 290.453 1973.99 281.634C1976.59 272.297 1979.96 266.072 1984.11 262.96L2221.38 251.288C2222.94 254.4 2223.98 257.513 2224.5 260.625C2225.01 263.738 2225.27 266.85 2225.27 269.963C2225.27 281.894 2223.46 292.009 2219.83 300.309C2216.2 308.09 2210.75 313.277 2203.49 315.871Z" fill="#2D2C28"/>
<path d="M2406.12 617C2363.6 617 2328.85 608.96 2301.88 592.879C2275.43 576.798 2262.2 556.826 2262.2 532.964C2262.2 519.477 2266.35 509.102 2274.65 501.84C2283.47 494.058 2294.62 490.168 2308.1 490.168C2324.18 490.168 2337.41 494.577 2347.78 503.396C2347.78 530.37 2352.96 550.342 2363.34 563.31C2374.23 576.279 2390.57 582.763 2412.35 582.763C2431.02 582.763 2445.8 578.354 2456.69 569.535C2467.58 560.198 2473.03 547.748 2473.03 532.186C2473.03 519.217 2469.14 508.843 2461.36 501.061C2453.58 492.762 2443.47 486.018 2431.02 480.831C2419.09 475.124 2405.87 469.678 2391.34 464.49C2373.71 458.265 2356.08 451.003 2338.44 442.703C2321.33 433.885 2306.81 422.472 2294.88 408.466C2283.47 393.942 2277.76 375.526 2277.76 353.22C2277.76 321.058 2290.73 295.64 2316.66 276.966C2342.59 257.772 2378.12 248.175 2423.24 248.175C2448.65 248.175 2470.95 251.288 2490.14 257.513C2509.85 263.219 2525.15 271.519 2536.04 282.412C2547.45 293.306 2553.16 305.756 2553.16 319.762C2553.16 332.211 2548.75 342.067 2539.93 349.33C2531.63 356.592 2520.74 360.223 2507.26 360.223C2494.29 360.223 2483.14 356.073 2473.81 347.774C2473.81 327.024 2468.62 310.943 2458.25 299.531C2447.87 288.118 2433.09 282.412 2413.9 282.412C2398.35 282.412 2385.9 286.043 2376.56 293.306C2367.75 300.568 2363.34 310.424 2363.34 322.874C2363.34 334.286 2366.97 343.883 2374.23 351.664C2381.49 358.927 2391.08 365.151 2403.01 370.339C2415.46 375.008 2428.43 379.936 2441.91 385.123C2461.1 391.867 2480.03 399.648 2498.7 408.466C2517.89 417.285 2533.71 428.957 2546.16 443.481C2558.6 458.006 2564.83 477.459 2564.83 501.84C2564.83 525.702 2558.34 546.192 2545.38 563.31C2532.41 580.429 2514 593.657 2490.14 602.994C2466.29 612.331 2438.28 617 2406.12 617Z" fill="#2D2C28"/>
<path d="M2788.99 617C2736.09 617 2694.34 602.216 2663.74 572.648C2633.66 542.561 2618.62 501.84 2618.62 450.484C2618.62 411.06 2627.18 376.304 2644.3 346.217C2661.93 315.612 2685.79 291.75 2715.87 274.631C2746.47 256.994 2781.73 248.175 2821.67 248.175C2856.94 248.175 2887.54 255.178 2913.47 269.184C2939.4 282.672 2959.37 302.124 2973.37 327.543C2987.89 352.961 2995.15 382.789 2995.15 417.025C2995.15 455.931 2986.34 490.427 2968.7 520.514C2951.59 550.601 2927.47 574.204 2896.35 591.322C2865.23 608.441 2829.45 617 2788.99 617ZM2806.89 580.429C2833.86 580.429 2854.6 567.979 2869.12 543.079C2884.16 517.661 2891.68 481.868 2891.68 435.7C2891.68 387.976 2884.16 350.886 2869.12 324.43C2854.6 297.975 2833.86 284.747 2806.89 284.747C2779.92 284.747 2759.17 297.456 2744.65 322.874C2730.13 347.774 2722.87 383.826 2722.87 431.031C2722.87 479.274 2729.87 516.364 2743.87 542.301C2758.4 567.72 2779.4 580.429 2806.89 580.429Z" fill="#2D2C28"/>
<path d="M3054.16 607.663C3054.16 583.801 3058.31 570.573 3066.61 567.979L3110.95 550.082L3102.4 561.754V305.756L3111.73 317.427L3065.83 305.756C3058.05 303.681 3054.16 290.972 3054.16 267.628C3078.54 263.478 3097.47 260.625 3110.95 259.069C3124.96 257.513 3136.63 256.735 3145.96 256.735C3163.6 256.735 3176.04 260.625 3183.3 268.406C3191.08 276.187 3194.97 288.637 3194.97 305.756V324.43L3191.86 322.096H3200.42C3222.72 299.271 3246.58 281.375 3271.99 268.406C3297.92 254.919 3322.56 248.175 3345.9 248.175C3374.94 248.175 3396.2 258.291 3409.69 278.522C3423.17 298.753 3429.91 329.358 3429.91 370.339V564.088L3420.58 553.195L3468.81 564.867C3468.81 574.723 3467.78 582.763 3465.7 588.988C3463.63 594.694 3460 600.919 3454.81 607.663H3293.77C3293.77 583.801 3297.92 570.573 3306.22 567.979L3340.45 555.529L3331.89 567.201V381.232C3331.89 337.139 3316.59 315.093 3285.99 315.093C3273.55 315.093 3261.36 317.946 3249.43 323.652C3237.5 328.84 3226.87 335.324 3217.53 343.105C3208.72 350.886 3201.72 358.408 3196.53 365.67L3200.42 352.442V564.088L3191.08 553.195L3239.32 564.867C3239.32 574.723 3238.28 582.763 3236.2 588.988C3234.13 594.694 3230.24 600.919 3224.54 607.663H3054.16ZM3523.27 607.663C3523.27 583.801 3527.42 570.573 3535.72 567.979L3569.95 555.529L3561.39 567.201V381.232C3561.39 337.139 3546.09 315.093 3515.49 315.093C3497.86 315.093 3481 320.28 3464.92 330.655C3449.36 341.03 3436.92 352.183 3427.58 364.114L3416.69 322.096H3429.14C3451.44 299.271 3475.55 281.375 3501.49 268.406C3527.42 254.919 3551.79 248.175 3574.61 248.175C3604.18 248.175 3625.7 258.291 3639.18 278.522C3652.67 298.753 3659.41 329.099 3659.41 369.561V559.42L3650.85 548.526L3707.64 564.867C3707.64 574.723 3706.61 582.763 3704.53 588.988C3702.98 594.694 3699.35 600.919 3693.64 607.663H3523.27Z" fill="#2D2C28"/>
<path d="M3928.07 617C3893.84 617 3863.76 609.738 3837.83 595.213C3811.9 580.688 3791.67 560.457 3777.15 534.52C3763.15 508.583 3756.15 478.496 3756.15 444.259C3756.15 406.91 3764.44 373.451 3781.04 343.883C3797.64 314.315 3819.94 290.971 3847.94 273.853C3876.47 256.735 3908.11 248.175 3942.85 248.175C3972.94 248.175 3999.13 254.66 4021.43 267.628C4043.73 280.078 4060.84 297.715 4072.77 320.54C4085.22 342.846 4091.44 369.301 4091.44 399.907C4091.44 412.876 4089.63 421.435 4086 425.585C4082.37 429.216 4076.66 431.031 4068.88 431.031H3826.16V394.46L4009.76 389.792L4001.2 401.463C4001.72 376.564 3999.39 355.555 3994.2 338.436C3989.01 320.799 3981.49 307.571 3971.64 298.753C3961.79 289.415 3949.86 284.747 3935.85 284.747C3914.07 284.747 3896.18 296.418 3882.17 319.762C3868.17 342.586 3861.17 374.489 3861.17 415.469C3861.17 446.075 3865.58 472.531 3874.4 494.837C3883.21 517.142 3896.18 534.261 3913.29 546.192C3930.41 557.604 3951.41 563.31 3976.31 563.31C3995.5 563.31 4013.65 559.16 4030.76 550.861C4047.88 542.561 4064.47 530.63 4080.55 515.067L4093 543.079C4081.07 557.604 4066.29 570.573 4048.66 581.985C4031.02 592.879 4011.83 601.438 3991.09 607.663C3970.86 613.888 3949.86 617 3928.07 617Z" fill="#2D2C28"/>
<path d="M679 63.7509C679 98.9595 650.532 127.502 615.415 127.502C580.298 127.502 551.83 98.9595 551.83 63.7509C551.83 28.5422 580.298 0 615.415 0C650.532 0 679 28.5422 679 63.7509Z" fill="#2F2C26"/>
<path d="M488.242 358.599C488.242 253.601 403.346 168.484 298.622 168.484C193.898 168.484 109.003 253.601 109.003 358.599C109.003 463.596 193.898 548.713 298.622 548.713V658C133.698 658 0 523.953 0 358.599C0 193.244 133.698 59.1971 298.622 59.1971C463.547 59.1971 597.245 193.244 597.245 358.599C597.245 523.953 463.547 658 298.622 658V548.713C403.346 548.713 488.242 463.596 488.242 358.599Z" fill="#2F2C26"/>
</svg>
