<svg width="127" height="53" viewBox="0 0 127 53" fill="none" xmlns="http://www.w3.org/2000/svg">
<path d="M0 0.543999H7.072L12.416 16.256H12.48L17.536 0.543999H24.608V23.392H19.904V7.2H19.84L14.24 23.392H10.368L4.768 7.36H4.704V23.392H0V0.543999Z" fill="#2F2C25"/>
<path d="M34.7913 14.56H40.7113L37.8312 6.176H37.7673L34.7913 14.56ZM35.2712 0.543999H40.4232L48.9673 23.392H43.7513L42.0233 18.304H33.4792L31.6873 23.392H26.6313L35.2712 0.543999Z" fill="#2F2C25"/>
<path d="M55.9615 10.88H61.4655C62.6175 10.88 63.4815 10.624 64.0575 10.112C64.6335 9.6 64.9215 8.768 64.9215 7.616C64.9215 6.50667 64.6335 5.70667 64.0575 5.216C63.4815 4.704 62.6175 4.448 61.4655 4.448H55.9615V10.88ZM50.9375 0.543999H63.2575C64.2815 0.543999 65.1988 0.714666 66.0095 1.056C66.8415 1.376 67.5455 1.824 68.1215 2.4C68.7188 2.976 69.1668 3.648 69.4655 4.416C69.7855 5.16267 69.9455 5.97333 69.9455 6.848C69.9455 8.192 69.6575 9.35467 69.0815 10.336C68.5268 11.3173 67.6095 12.064 66.3295 12.576V12.64C66.9482 12.8107 67.4602 13.0773 67.8655 13.44C68.2708 13.7813 68.6015 14.1973 68.8575 14.688C69.1135 15.1573 69.2948 15.68 69.4015 16.256C69.5295 16.832 69.6148 17.408 69.6575 17.984C69.6788 18.3467 69.7002 18.7733 69.7215 19.264C69.7428 19.7547 69.7748 20.256 69.8175 20.768C69.8815 21.28 69.9668 21.7707 70.0735 22.24C70.2015 22.688 70.3828 23.072 70.6175 23.392H65.5935C65.3162 22.6667 65.1455 21.8027 65.0815 20.8C65.0175 19.7973 64.9215 18.8373 64.7935 17.92C64.6228 16.7253 64.2602 15.8507 63.7055 15.296C63.1508 14.7413 62.2442 14.464 60.9855 14.464H55.9615V23.392H50.9375V0.543999Z" fill="#2F2C25"/>
<path d="M89.2633 8.224C89.1779 7.648 88.9859 7.12533 88.6872 6.656C88.3886 6.16533 88.0153 5.73867 87.5673 5.376C87.1193 5.01333 86.6072 4.736 86.0312 4.544C85.4766 4.33067 84.8899 4.224 84.2712 4.224C83.1406 4.224 82.1806 4.448 81.3913 4.896C80.6019 5.32267 79.9619 5.90933 79.4713 6.656C78.9806 7.38133 78.6179 8.21333 78.3832 9.152C78.1699 10.0907 78.0632 11.0613 78.0632 12.064C78.0632 13.024 78.1699 13.9627 78.3832 14.88C78.6179 15.776 78.9806 16.5867 79.4713 17.312C79.9619 18.0373 80.6019 18.624 81.3913 19.072C82.1806 19.4987 83.1406 19.712 84.2712 19.712C85.8073 19.712 87.0019 19.2427 87.8553 18.304C88.7299 17.3653 89.2632 16.128 89.4552 14.592H94.3193C94.1913 16.0213 93.8606 17.312 93.3273 18.464C92.7939 19.616 92.0899 20.5973 91.2152 21.408C90.3406 22.2187 89.3166 22.8373 88.1432 23.264C86.9699 23.6907 85.6792 23.904 84.2712 23.904C82.5219 23.904 80.9432 23.6053 79.5352 23.008C78.1486 22.3893 76.9753 21.5467 76.0153 20.48C75.0553 19.4133 74.3193 18.1653 73.8073 16.736C73.2952 15.2853 73.0393 13.728 73.0393 12.064C73.0393 10.3573 73.2952 8.77867 73.8073 7.328C74.3193 5.856 75.0553 4.576 76.0153 3.488C76.9753 2.4 78.1486 1.54667 79.5352 0.927999C80.9432 0.309333 82.5219 0 84.2712 0C85.5299 0 86.7139 0.181333 87.8232 0.543999C88.9539 0.906666 89.9566 1.44 90.8313 2.144C91.7272 2.82667 92.4633 3.68 93.0393 4.704C93.6152 5.728 93.9779 6.90133 94.1273 8.224H89.2633Z" fill="#2F2C25"/>
<path d="M101.782 12.064C101.782 13.024 101.889 13.9627 102.102 14.88C102.337 15.776 102.699 16.5867 103.19 17.312C103.681 18.0373 104.321 18.624 105.11 19.072C105.899 19.4987 106.859 19.712 107.99 19.712C109.121 19.712 110.081 19.4987 110.87 19.072C111.659 18.624 112.299 18.0373 112.79 17.312C113.281 16.5867 113.633 15.776 113.846 14.88C114.081 13.9627 114.198 13.024 114.198 12.064C114.198 11.0613 114.081 10.0907 113.846 9.152C113.633 8.21333 113.281 7.38133 112.79 6.656C112.299 5.90933 111.659 5.32267 110.87 4.896C110.081 4.448 109.121 4.224 107.99 4.224C106.859 4.224 105.899 4.448 105.11 4.896C104.321 5.32267 103.681 5.90933 103.19 6.656C102.699 7.38133 102.337 8.21333 102.102 9.152C101.889 10.0907 101.782 11.0613 101.782 12.064ZM96.758 12.064C96.758 10.3573 97.014 8.77867 97.526 7.328C98.038 5.856 98.774 4.576 99.734 3.488C100.694 2.4 101.867 1.54667 103.254 0.927999C104.662 0.309333 106.241 0 107.99 0C109.761 0 111.339 0.309333 112.726 0.927999C114.113 1.54667 115.286 2.4 116.246 3.488C117.206 4.576 117.942 5.856 118.454 7.328C118.966 8.77867 119.222 10.3573 119.222 12.064C119.222 13.728 118.966 15.2853 118.454 16.736C117.942 18.1653 117.206 19.4133 116.246 20.48C115.286 21.5467 114.113 22.3893 112.726 23.008C111.339 23.6053 109.761 23.904 107.99 23.904C106.241 23.904 104.662 23.6053 103.254 23.008C101.867 22.3893 100.694 21.5467 99.734 20.48C98.774 19.4133 98.038 18.1653 97.526 16.736C97.014 15.2853 96.758 13.728 96.758 12.064Z" fill="#2F2C25"/>
<path d="M5.024 40.656H8.928C9.504 40.656 10.0587 40.6133 10.592 40.528C11.1253 40.4427 11.5947 40.2827 12 40.048C12.4053 39.792 12.7253 39.44 12.96 38.992C13.216 38.544 13.344 37.9573 13.344 37.232C13.344 36.5067 13.216 35.92 12.96 35.472C12.7253 35.024 12.4053 34.6827 12 34.448C11.5947 34.192 11.1253 34.0213 10.592 33.936C10.0587 33.8507 9.504 33.808 8.928 33.808H5.024V40.656ZM0 29.904H10.304C11.7333 29.904 12.9493 30.1173 13.952 30.544C14.9547 30.9493 15.7653 31.4933 16.384 32.176C17.024 32.8587 17.4827 33.6373 17.76 34.512C18.0587 35.3867 18.208 36.2933 18.208 37.232C18.208 38.1493 18.0587 39.056 17.76 39.952C17.4827 40.8267 17.024 41.6053 16.384 42.288C15.7653 42.9707 14.9547 43.5253 13.952 43.952C12.9493 44.3573 11.7333 44.56 10.304 44.56H5.024V52.752H0V29.904Z" fill="#2F2C25"/>
<path d="M21.3438 29.904H26.3678V52.752H21.3438V29.904Z" fill="#2F2C25"/>
<path d="M30.7812 29.904H47.8693V34.128H35.8053V39.024H46.8773V42.928H35.8053V48.528H48.1253V52.752H30.7812V29.904Z" fill="#2F2C25"/>
<path d="M56.5553 40.24H62.0592C63.2113 40.24 64.0753 39.984 64.6513 39.472C65.2272 38.96 65.5153 38.128 65.5153 36.976C65.5153 35.8667 65.2272 35.0667 64.6513 34.576C64.0753 34.064 63.2113 33.808 62.0592 33.808H56.5553V40.24ZM51.5312 29.904H63.8512C64.8753 29.904 65.7926 30.0747 66.6032 30.416C67.4352 30.736 68.1393 31.184 68.7152 31.76C69.3126 32.336 69.7606 33.008 70.0592 33.776C70.3792 34.5227 70.5393 35.3333 70.5393 36.208C70.5393 37.552 70.2513 38.7147 69.6752 39.696C69.1206 40.6773 68.2032 41.424 66.9232 41.936V42C67.5419 42.1707 68.0539 42.4373 68.4593 42.8C68.8646 43.1413 69.1953 43.5573 69.4512 44.048C69.7072 44.5173 69.8886 45.04 69.9953 45.616C70.1233 46.192 70.2086 46.768 70.2513 47.344C70.2726 47.7067 70.2939 48.1333 70.3152 48.624C70.3366 49.1147 70.3686 49.616 70.4113 50.128C70.4753 50.64 70.5606 51.1307 70.6673 51.6C70.7952 52.048 70.9766 52.432 71.2113 52.752H66.1872C65.9099 52.0267 65.7392 51.1627 65.6752 50.16C65.6112 49.1573 65.5153 48.1973 65.3873 47.28C65.2166 46.0853 64.8539 45.2107 64.2992 44.656C63.7446 44.1013 62.8379 43.824 61.5793 43.824H56.5553V52.752H51.5312V29.904Z" fill="#2F2C25"/>
<path d="M79.649 40.24H85.153C86.305 40.24 87.169 39.984 87.745 39.472C88.321 38.96 88.609 38.128 88.609 36.976C88.609 35.8667 88.321 35.0667 87.745 34.576C87.169 34.064 86.305 33.808 85.153 33.808H79.649V40.24ZM74.625 29.904H86.945C87.969 29.904 88.8863 30.0747 89.697 30.416C90.529 30.736 91.233 31.184 91.809 31.76C92.4063 32.336 92.8543 33.008 93.153 33.776C93.473 34.5227 93.633 35.3333 93.633 36.208C93.633 37.552 93.345 38.7147 92.769 39.696C92.2143 40.6773 91.297 41.424 90.017 41.936V42C90.6357 42.1707 91.1477 42.4373 91.553 42.8C91.9583 43.1413 92.289 43.5573 92.545 44.048C92.801 44.5173 92.9823 45.04 93.089 45.616C93.217 46.192 93.3023 46.768 93.345 47.344C93.3663 47.7067 93.3877 48.1333 93.409 48.624C93.4303 49.1147 93.4623 49.616 93.505 50.128C93.569 50.64 93.6543 51.1307 93.761 51.6C93.889 52.048 94.0703 52.432 94.305 52.752H89.281C89.0037 52.0267 88.833 51.1627 88.769 50.16C88.705 49.1573 88.609 48.1973 88.481 47.28C88.3103 46.0853 87.9477 45.2107 87.393 44.656C86.8383 44.1013 85.9317 43.824 84.673 43.824H79.649V52.752H74.625V29.904Z" fill="#2F2C25"/>
<path d="M97.7188 29.904H114.807V34.128H102.743V39.024H113.815V42.928H102.743V48.528H115.063V52.752H97.7188V29.904Z" fill="#2F2C25"/>
<path d="M126.222 2C126.222 3.10457 125.327 4 124.222 4C123.117 4 122.222 3.10457 122.222 2C122.222 0.89543 123.117 0 124.222 0C125.327 0 126.222 0.89543 126.222 2Z" fill="#2F2C25"/>
</svg>
